<svg width="664" height="92" viewBox="0 0 664 92" fill="none" xmlns="http://www.w3.org/2000/svg">
<path d="M186.805 77.5353H181.626L178.643 69.3409H162.162L159.18 77.5353H154L167.656 41H173.15L186.805 77.5353ZM170.377 46.7934L163.836 64.8001H176.969L170.377 46.7934Z" fill="white"/>
<path d="M205.096 50.7601C208.758 50.7601 211.88 52.0998 214.461 54.779C217.042 57.4583 218.333 60.6942 218.333 64.487C218.333 68.3145 217.042 71.5678 214.461 74.2471C211.915 76.8915 208.793 78.2138 205.096 78.2138C200.771 78.2138 197.474 76.4914 195.207 73.0466V87.9739H190.655V51.4386H195.207V55.9273C197.474 52.4825 200.771 50.7601 205.096 50.7601ZM204.52 73.8295C207.136 73.8295 209.334 72.9423 211.113 71.1677C212.892 69.3235 213.781 67.0966 213.781 64.487C213.781 61.8425 212.892 59.633 211.113 57.8584C209.334 56.049 207.136 55.1444 204.52 55.1444C201.869 55.1444 199.654 56.049 197.875 57.8584C196.097 59.633 195.207 61.8425 195.207 64.487C195.207 67.0966 196.097 69.3235 197.875 71.1677C199.654 72.9423 201.869 73.8295 204.52 73.8295Z" fill="white"/>
<path d="M236.06 78.2138C232.119 78.2138 228.84 76.9089 226.224 74.2993C223.608 71.6548 222.3 68.384 222.3 64.487C222.3 60.5899 223.608 57.3365 226.224 54.7268C228.84 52.0824 232.119 50.7601 236.06 50.7601C238.641 50.7601 240.961 51.3865 243.019 52.6391C245.077 53.8569 246.612 55.5097 247.623 57.5974L243.804 59.7896C243.141 58.3977 242.112 57.2843 240.717 56.4492C239.356 55.6141 237.804 55.1966 236.06 55.1966C233.444 55.1966 231.247 56.0838 229.468 57.8584C227.724 59.6678 226.852 61.8773 226.852 64.487C226.852 67.0618 227.724 69.2539 229.468 71.0633C231.247 72.8379 233.444 73.7252 236.06 73.7252C237.804 73.7252 239.374 73.325 240.769 72.5247C242.164 71.6896 243.228 70.5762 243.961 69.1843L247.832 71.4287C246.681 73.5164 245.059 75.1692 242.967 76.387C240.874 77.6048 238.572 78.2138 236.06 78.2138Z" fill="white"/>
<path d="M277.083 66.5747H255.161C255.614 68.8712 256.678 70.6805 258.352 72.0028C260.027 73.2902 262.119 73.9339 264.631 73.9339C268.084 73.9339 270.595 72.6639 272.165 70.1238L276.037 72.3159C273.456 76.2478 269.619 78.2138 264.526 78.2138C260.41 78.2138 257.027 76.9263 254.376 74.3515C251.795 71.707 250.504 68.4188 250.504 64.487C250.504 60.5203 251.777 57.2495 254.324 54.6746C256.87 52.065 260.166 50.7601 264.212 50.7601C268.049 50.7601 271.171 52.1172 273.578 54.8312C276.019 57.4757 277.24 60.7116 277.24 64.5391C277.24 65.2003 277.188 65.8788 277.083 66.5747ZM264.212 55.04C261.805 55.04 259.782 55.7185 258.143 57.0755C256.538 58.4325 255.544 60.2767 255.161 62.608H272.636C272.252 60.2071 271.293 58.3455 269.758 57.0233C268.224 55.7011 266.375 55.04 264.212 55.04Z" fill="white"/>
<path d="M300.576 62.2948V51.4386H305.128V77.5353H300.576V66.6269H287.025V77.5353H282.473V51.4386H287.025V62.2948H300.576Z" fill="white"/>
<path d="M333.718 55.9273V51.4386H338.27V77.5353H333.718V73.0466C331.485 76.4914 328.189 78.2138 323.829 78.2138C320.132 78.2138 317.01 76.8915 314.464 74.2471C311.882 71.5678 310.592 68.3145 310.592 64.487C310.592 60.6942 311.882 57.4583 314.464 54.779C317.045 52.0998 320.167 50.7601 323.829 50.7601C328.189 50.7601 331.485 52.4825 333.718 55.9273ZM324.405 73.8295C327.055 73.8295 329.27 72.9423 331.049 71.1677C332.828 69.3235 333.718 67.0966 333.718 64.487C333.718 61.8425 332.828 59.633 331.049 57.8584C329.27 56.049 327.055 55.1444 324.405 55.1444C321.788 55.1444 319.591 56.049 317.812 57.8584C316.033 59.633 315.144 61.8425 315.144 64.487C315.144 67.0966 316.033 69.3235 317.812 71.1677C319.591 72.9423 321.788 73.8295 324.405 73.8295Z" fill="white"/>
<path d="M347.573 51.4386H366.984V77.5353H362.432V55.8229H352.125V66.4703C352.125 70.6458 351.288 73.6208 349.614 75.3953C347.939 77.1351 345.48 77.8484 342.236 77.5353V73.2554C344.05 73.499 345.393 73.0988 346.265 72.055C347.137 70.9763 347.573 69.08 347.573 66.3659V51.4386Z" fill="white"/>
<path d="M392.299 55.3531H401.193C404.333 55.3531 407.018 56.4318 409.251 58.5891C411.448 60.7116 412.547 63.3213 412.547 66.4181C412.547 69.5497 411.448 72.1942 409.251 74.3515C407.123 76.474 404.437 77.5353 401.193 77.5353H387.433V41H409.408V45.593H392.299V55.3531ZM392.299 72.9944H401.193C403.007 72.9944 404.542 72.3681 405.798 71.1155C407.088 69.8629 407.733 68.2971 407.733 66.4181C407.733 64.5739 407.088 63.0255 405.798 61.7729C404.542 60.5203 403.007 59.8939 401.193 59.8939H392.299V72.9944Z" fill="white"/>
<path d="M426.659 71.8984L434.193 51.4386H439.059L428.385 79.1532C427.269 82.1109 425.699 84.3552 423.676 85.8862C421.653 87.452 419.351 88.1479 416.77 87.9739V83.7463C419.944 83.9898 422.299 82.25 423.833 78.5269L424.252 77.5875L412.898 51.4386H417.712L426.659 71.8984Z" fill="white"/>
<path d="M455.574 64.0694L465.567 77.5353H460.23L452.905 67.6707L445.528 77.5353H440.191L450.237 64.1216L440.767 51.4386H446.156L452.905 60.5203L459.655 51.4386H464.992L455.574 64.0694Z" fill="white"/>
<path d="M469.787 51.4386H486.948V55.8229H474.339V77.5353H469.787V51.4386Z" fill="white"/>
<path d="M511.579 55.9273V51.4386H516.131V77.5353H511.579V73.0466C509.347 76.4914 506.051 78.2138 501.691 78.2138C497.993 78.2138 494.871 76.8915 492.325 74.2471C489.744 71.5678 488.453 68.3145 488.453 64.487C488.453 60.6942 489.744 57.4583 492.325 54.779C494.906 52.0998 498.028 50.7601 501.691 50.7601C506.051 50.7601 509.347 52.4825 511.579 55.9273ZM502.266 73.8295C504.917 73.8295 507.132 72.9423 508.911 71.1677C510.69 69.3235 511.579 67.0966 511.579 64.487C511.579 61.8425 510.69 59.633 508.911 57.8584C507.132 56.049 504.917 55.1444 502.266 55.1444C499.65 55.1444 497.453 56.049 495.674 57.8584C493.895 59.633 493.005 61.8425 493.005 64.487C493.005 67.0966 493.895 69.3235 495.674 71.1677C497.453 72.9423 499.65 73.8295 502.266 73.8295Z" fill="white"/>
<path d="M525.435 51.4386H544.846V77.5353H540.294V55.8229H529.987V66.4703C529.987 70.6458 529.149 73.6208 527.475 75.3953C525.801 77.1351 523.342 77.8484 520.098 77.5353V73.2554C521.912 73.499 523.255 73.0988 524.127 72.055C524.999 70.9763 525.435 69.08 525.435 66.3659V51.4386Z" fill="white"/>
<path d="M548.813 51.4386H571.207V55.8229H562.312V77.5353H557.76V55.8229H548.813V51.4386Z" fill="white"/>
<path d="M599.288 66.5747H577.365C577.819 68.8712 578.883 70.6805 580.557 72.0028C582.231 73.2902 584.324 73.9339 586.836 73.9339C590.289 73.9339 592.8 72.6639 594.37 70.1238L598.242 72.3159C595.66 76.2478 591.824 78.2138 586.731 78.2138C582.615 78.2138 579.232 76.9263 576.581 74.3515C573.999 71.707 572.709 68.4188 572.709 64.487C572.709 60.5203 573.982 57.2495 576.528 54.6746C579.075 52.065 582.371 50.7601 586.417 50.7601C590.254 50.7601 593.376 52.1172 595.782 54.8312C598.224 57.4757 599.445 60.7116 599.445 64.5391C599.445 65.2003 599.393 65.8788 599.288 66.5747ZM586.417 55.04C584.01 55.04 581.987 55.7185 580.348 57.0755C578.743 58.4325 577.749 60.2767 577.365 62.608H594.841C594.457 60.2071 593.498 58.3455 591.963 57.0233C590.428 55.7011 588.58 55.04 586.417 55.04Z" fill="white"/>
<path d="M619.118 50.7601C622.781 50.7601 625.902 52.0998 628.484 54.779C631.065 57.4583 632.355 60.6942 632.355 64.487C632.355 68.3145 631.065 71.5678 628.484 74.2471C625.937 76.8915 622.816 78.2138 619.118 78.2138C614.793 78.2138 611.497 76.4914 609.23 73.0466V87.9739H604.678V51.4386H609.23V55.9273C611.497 52.4825 614.793 50.7601 619.118 50.7601ZM618.543 73.8295C621.159 73.8295 623.356 72.9423 625.135 71.1677C626.914 69.3235 627.804 67.0966 627.804 64.487C627.804 61.8425 626.914 59.633 625.135 57.8584C623.356 56.049 621.159 55.1444 618.543 55.1444C615.892 55.1444 613.677 56.049 611.898 57.8584C610.119 59.633 609.23 61.8425 609.23 64.487C609.23 67.0966 610.119 69.3235 611.898 71.1677C613.677 72.9423 615.892 73.8295 618.543 73.8295Z" fill="white"/>
<path d="M659.448 55.9273V51.4386H664V77.5353H659.448V73.0466C657.216 76.4914 653.919 78.2138 649.559 78.2138C645.862 78.2138 642.74 76.8915 640.194 74.2471C637.613 71.5678 636.322 68.3145 636.322 64.487C636.322 60.6942 637.613 57.4583 640.194 54.779C642.775 52.0998 645.897 50.7601 649.559 50.7601C653.919 50.7601 657.216 52.4825 659.448 55.9273ZM650.135 73.8295C652.786 73.8295 655.001 72.9423 656.78 71.1677C658.559 69.3235 659.448 67.0966 659.448 64.487C659.448 61.8425 658.559 59.633 656.78 57.8584C655.001 56.049 652.786 55.1444 650.135 55.1444C647.519 55.1444 645.321 56.049 643.542 57.8584C641.763 59.633 640.874 61.8425 640.874 64.487C640.874 67.0966 641.763 69.3235 643.542 71.1677C645.321 72.9423 647.519 73.8295 650.135 73.8295Z" fill="white"/>
<path fill-rule="evenodd" clip-rule="evenodd" d="M7.79264 26.2939H138.227V84.2121C138.227 86.259 137.406 88.222 135.944 89.6694C134.483 91.1168 132.501 91.9299 130.434 91.9299H7.79264C5.7259 91.9299 3.74381 91.1168 2.28241 89.6694C0.821008 88.222 0 86.259 0 84.2121L0 34.0117C0 31.9648 0.821008 30.0017 2.28241 28.5544C3.74381 27.107 5.7259 26.2939 7.79264 26.2939Z" fill="#FBBA00"/>
<path fill-rule="evenodd" clip-rule="evenodd" d="M154.432 19.2995C157.053 15.8517 158.314 9.90733 156.273 0C130.524 3.96293 136.046 17.744 138.507 22.0537C142.299 16.2301 146.772 10.8696 151.831 6.0831C148.401 10.991 145.434 16.2011 142.968 21.6475C146.44 17.6846 150.511 17.4765 154.432 19.2995ZM162.535 27.3838C151.251 39.986 145.199 33.0112 142.948 29.2266C146.453 28.0722 150.143 27.5683 153.832 27.7405C150.108 26.6015 146.211 26.1154 142.318 26.3039C143.689 23.0444 149.33 13.4244 162.535 27.3838Z" fill="#85BC22"/>
<path fill-rule="evenodd" clip-rule="evenodd" d="M78.7867 40.6993H82.1778V44.0579H78.7867V40.6993ZM30.2202 61.7425L38.6431 40.6993H44.245L31.3006 70.9068C29.3999 75.3354 26.9091 77.297 22.2975 77.4753C19.9057 77.5113 17.529 77.0944 15.2952 76.2468V72.0164C19.6666 73.2845 20.2368 73.4331 21.7974 73.4034C23.9281 73.4034 25.7287 72.274 27.7994 67.5383L15.3252 40.6993H20.737L30.2202 61.7425ZM66.9427 77.4753H62.2711V67.6968C60.2176 68.2326 58.1025 68.5024 55.9789 68.4993C49.4267 68.4993 45.5354 65.1506 45.4754 58.5325V50.5274H50.127V58.7208C50.127 62.7431 52.1276 64.4967 55.9789 64.4967C58.1025 64.4998 60.2176 64.23 62.2711 63.6942V50.5274H66.9427V77.4753ZM85.549 77.4753C76.826 77.4753 72.6046 71.8083 72.6046 63.9122C72.6046 56.9771 77.1161 50.5472 84.9488 50.5472C94.7121 50.5472 96.5627 57.6111 96.5627 65.2893H76.906C76.9011 66.4206 77.1275 67.5411 77.5715 68.5834C78.0154 69.6257 78.6679 70.5682 79.4894 71.3541C80.311 72.14 81.2847 72.7531 82.3519 73.1564C83.4191 73.5596 84.5577 73.7448 85.699 73.7006C87.1349 73.7609 88.5651 73.4887 89.8762 72.9056C91.1872 72.3226 92.343 71.4449 93.2516 70.3421L96.2526 72.4523C93.8518 75.801 90.2839 77.4753 85.549 77.4753ZM84.9488 54.1832C80.3972 54.1832 77.5863 57.7201 77.0661 61.6533H92.2612C92.2612 57.621 89.5103 54.1832 84.9488 54.1832ZM122.892 54.2724H113.769V77.4753H109.117V54.2724H100.114V50.5274H122.842V54.2526L122.892 54.2724ZM87.0295 40.7291H90.4206V44.0876H87.0295V40.7291Z" fill="white"/>
</svg>
