<svg width="296" height="93" viewBox="0 0 296 93" fill="none" xmlns="http://www.w3.org/2000/svg">
<g clip-path="url(#clip0)">
<path fill-rule="evenodd" clip-rule="evenodd" d="M180.26 78L177.26 69.59H160.34L157.28 78H152L166 40.51H171.62L185.62 78H180.26ZM162.05 64.94H175.49L168.74 46.47L162.05 64.94ZM206.05 51.23L198.34 72.23L189.18 51.23H184.26L195.9 78.07L195.47 79.07C193.93 82.89 191.52 84.6767 188.24 84.43V88.76C190.778 88.9724 193.303 88.2189 195.31 86.65C197.54 84.8383 199.211 82.4321 200.13 79.71L211.05 51.27L206.05 51.23ZM236.31 73.57H240V85.19H235.39V78H215.34V85.18H210.73V73.57H214C215.707 71.21 216.563 67.9067 216.57 63.66V51.23H236.33V73.57H236.31ZM219.31 73.57H231.74V55.57H221.18V63.66C221.297 67.0619 220.654 70.4472 219.3 73.57H219.31ZM264.51 51.23H268.26V78H263.66V59.21L248.81 78H245.06V51.23H249.67V70L264.5 51.2L264.51 51.23ZM295.25 51.23V55.73H286.15V78H281.49V55.73H272.33V51.23H295.25Z" fill="#080200"/>
<path fill-rule="evenodd" clip-rule="evenodd" d="M7.79 26.54H138.18V85C138.18 87.0661 137.359 89.0475 135.898 90.5084C134.437 91.9693 132.456 92.79 130.39 92.79H7.79C5.72396 92.79 3.74255 91.9693 2.28164 90.5084C0.82073 89.0475 0 87.0661 0 85L0 34.33C0 32.264 0.82073 30.2826 2.28164 28.8217C3.74255 27.3608 5.72396 26.54 7.79 26.54Z" fill="#3B2483"/>
<path fill-rule="evenodd" clip-rule="evenodd" d="M154.38 19.48C157 16 158.26 10 156.22 0C130.48 4 136 17.91 138.46 22.26C142.251 16.3819 146.722 10.9712 151.78 6.14C148.351 11.0938 145.385 16.3527 142.92 21.85C146.39 17.85 150.46 17.64 154.38 19.48ZM162.48 27.64C151.2 40.36 145.15 33.32 142.9 29.5C146.403 28.3347 150.092 27.8262 153.78 28C150.057 26.8504 146.162 26.3597 142.27 26.55C143.64 23.26 149.28 13.55 162.48 27.64Z" fill="#85BC22"/>
<path fill-rule="evenodd" clip-rule="evenodd" d="M78.76 41.08H82.15V44.47H78.76V41.08ZM30.21 62.32L38.63 41.08H44.23L31.29 71.57C29.39 76.04 26.9 78.02 22.29 78.2C19.899 78.2363 17.5231 77.8154 15.29 76.96V72.69C19.66 73.97 20.23 74.1199 21.79 74.09C23.92 74.09 25.72 72.95 27.79 68.17L15.32 41.08H20.73L30.21 62.32ZM66.92 78.2H62.25V68.33C60.1972 68.8708 58.0829 69.143 55.96 69.14C49.41 69.14 45.52 65.76 45.46 59.08V51H50.11V59.27C50.11 63.33 52.11 65.1 55.96 65.1C58.0829 65.103 60.1972 64.8308 62.25 64.29V51H66.92V78.2ZM85.52 78.2C76.8 78.2 72.58 72.48 72.58 64.51C72.58 57.51 77.09 51.02 84.92 51.02C94.68 51.02 96.53 58.15 96.53 65.9H76.88C76.8751 67.0418 77.1014 68.1728 77.5452 69.2248C77.9891 70.2769 78.6413 71.2282 79.4626 72.0215C80.2839 72.8147 81.2573 73.4335 82.3241 73.8406C83.3909 74.2476 84.5291 74.4345 85.67 74.39C87.1054 74.4507 88.5352 74.176 89.8458 73.5875C91.1564 72.999 92.3118 72.1131 93.22 71L96.22 73.13C93.82 76.51 90.2534 78.2 85.52 78.2ZM84.92 54.69C80.37 54.69 77.56 58.26 77.04 62.23H92.23C92.23 58.16 89.48 54.69 84.92 54.69ZM122.85 54.78H113.73V78.2H109.08V54.78H100.08V51H122.8V54.76L122.85 54.78ZM87 41.11H90.39V44.5H87V41.11Z" fill="white"/>
</g>
<defs>
<clipPath id="clip0">
<rect width="295.24" height="92.76" fill="white"/>
</clipPath>
</defs>
</svg>
