<svg width="410" height="100" viewBox="0 0 410 100" fill="none" xmlns="http://www.w3.org/2000/svg">
<g clip-path="url(#clip0)">
<path fill-rule="evenodd" clip-rule="evenodd" d="M7.79 26.54H138.18V85C138.18 87.0661 137.359 89.0475 135.898 90.5084C134.437 91.9693 132.456 92.79 130.39 92.79H7.79C5.72396 92.79 3.74255 91.9693 2.28164 90.5084C0.82073 89.0475 0 87.0661 0 85L0 34.33C0 32.264 0.82073 30.2826 2.28164 28.8217C3.74255 27.3608 5.72396 26.54 7.79 26.54Z" fill="#853976"/>
<path fill-rule="evenodd" clip-rule="evenodd" d="M154.38 19.48C157 16 158.26 10 156.22 0C130.48 4 136 17.91 138.46 22.26C142.251 16.3819 146.722 10.9712 151.78 6.14C148.351 11.0938 145.385 16.3527 142.92 21.85C146.39 17.85 150.46 17.64 154.38 19.48ZM162.48 27.64C151.2 40.36 145.15 33.32 142.9 29.5C146.403 28.3347 150.092 27.8262 153.78 28C150.057 26.8504 146.162 26.3597 142.27 26.55C143.64 23.26 149.28 13.55 162.48 27.64Z" fill="#A6CD33"/>
<path fill-rule="evenodd" clip-rule="evenodd" d="M78.76 41.0801H82.15V44.4701H78.76V41.0801ZM30.21 62.3201L38.63 41.0801H44.23L31.29 71.5701C29.39 76.0401 26.9 78.0201 22.29 78.2001C19.899 78.2364 17.5231 77.8155 15.29 76.9601V72.6901C19.66 73.9701 20.23 74.1201 21.79 74.0901C23.92 74.0901 25.72 72.9501 27.79 68.1701L15.32 41.0801H20.73L30.21 62.3201ZM66.92 78.2001H62.25V68.3301C60.1972 68.8709 58.0829 69.1432 55.96 69.1401C49.41 69.1401 45.52 65.7601 45.46 59.0801V51.0001H50.11V59.2701C50.11 63.3301 52.11 65.1001 55.96 65.1001C58.0829 65.1032 60.1972 64.8309 62.25 64.2901V51.0001H66.92V78.2001ZM85.52 78.2001C76.8 78.2001 72.58 72.4801 72.58 64.5101C72.58 57.5101 77.09 51.0201 84.92 51.0201C94.68 51.0201 96.53 58.1501 96.53 65.9001H76.88C76.8751 67.0419 77.1014 68.1729 77.5452 69.225C77.9891 70.277 78.6413 71.2283 79.4626 72.0216C80.2839 72.8148 81.2573 73.4336 82.3241 73.8407C83.3909 74.2477 84.5291 74.4346 85.67 74.3901C87.1054 74.4509 88.5352 74.1761 89.8458 73.5876C91.1564 72.9992 92.3118 72.1132 93.22 71.0001L96.22 73.1301C93.82 76.5101 90.2534 78.2001 85.52 78.2001ZM84.92 54.6901C80.37 54.6901 77.56 58.2601 77.04 62.2301H92.23C92.23 58.1601 89.48 54.6901 84.92 54.6901ZM122.85 54.7801H113.73V78.2001H109.08V54.7801H100.08V51.0001H122.8V54.7601L122.85 54.7801ZM87 41.1101H90.39V44.5001H87V41.1101Z" fill="white"/>
<path d="M179 37.0499H184.81C185.772 37.0438 186.726 37.228 187.617 37.5918C188.507 37.9557 189.317 38.492 190 39.1699C190.695 39.8267 191.245 40.6214 191.615 41.503C191.986 42.3846 192.168 43.3339 192.15 44.2899C192.169 45.2566 191.989 46.2168 191.618 47.1101C191.248 48.0033 190.697 48.8102 190 49.4799C189.312 50.1679 188.49 50.7082 187.586 51.0676C186.681 51.4269 185.713 51.5979 184.74 51.5699H175.74V27.6599H190.09V30.6599H179V37.0499ZM179 48.5999H184.81C185.368 48.6108 185.921 48.5073 186.437 48.2957C186.953 48.0842 187.421 47.7691 187.81 47.3699C188.209 46.9656 188.521 46.4836 188.725 45.9537C188.93 45.4238 189.024 44.8575 189 44.2899C189.005 43.1609 188.563 42.0757 187.771 41.2717C186.978 40.4678 185.899 40.0105 184.77 39.9999H179V48.5999Z" fill="black"/>
<path d="M201.4 47.88L206.32 34.49H209.49L202.49 52.63C201.899 54.3636 200.832 55.8955 199.41 57.05C198.155 58.0256 196.586 58.506 195 58.4V55.63C197.07 55.79 198.6 54.63 199.61 52.22L199.88 51.6L192.47 34.49H195.61L201.4 47.88Z" fill="black"/>
<path d="M220.29 42.76L226.81 51.57H223.33L218.55 45.11L213.73 51.57H210.25L216.8 42.79L210.62 34.49H214.14L218.55 40.43L222.95 34.49H226.44L220.29 42.76Z" fill="black"/>
<path d="M229.58 34.49H240.78V37.36H232.55V51.57H229.55L229.58 34.49Z" fill="black"/>
<path d="M256.83 37.4299V34.4899H259.83V51.5699H256.83V48.6299C256.154 49.7169 255.2 50.6028 254.065 51.1955C252.931 51.7882 251.658 52.066 250.38 51.9999C249.237 52.0216 248.102 51.8021 247.049 51.3559C245.996 50.9096 245.049 50.2466 244.27 49.4099C242.644 47.6875 241.739 45.4085 241.739 43.0399C241.739 40.6713 242.644 38.3924 244.27 36.6699C245.046 35.8255 245.991 35.1547 247.044 34.7014C248.097 34.2482 249.234 34.0227 250.38 34.0399C251.66 33.976 252.934 34.2568 254.069 34.8531C255.203 35.4494 256.157 36.3393 256.83 37.4299ZM250.75 49.1399C251.554 49.1621 252.354 49.0192 253.1 48.7199C253.847 48.4206 254.524 47.9714 255.09 47.3999C255.659 46.82 256.107 46.1319 256.406 45.3761C256.705 44.6204 256.849 43.8124 256.83 42.9999C256.851 42.1961 256.708 41.3965 256.408 40.6502C256.109 39.9039 255.661 39.2266 255.09 38.6599C253.938 37.5264 252.386 36.8912 250.77 36.8912C249.154 36.8912 247.602 37.5264 246.45 38.6599C245.88 39.2266 245.431 39.9039 245.132 40.6502C244.833 41.3965 244.689 42.1961 244.71 42.9999C244.695 43.8074 244.842 44.6097 245.14 45.36C245.439 46.1103 245.884 46.7936 246.45 47.3699C247.008 47.9432 247.677 48.3961 248.417 48.7005C249.156 49.005 249.95 49.1545 250.75 49.1399Z" fill="black"/>
<path d="M265.89 34.49H278.56V51.57H275.56V37.36H268.83V44.36C268.83 47.0933 268.283 49.0333 267.19 50.18C266.554 50.7771 265.786 51.2166 264.949 51.4632C264.112 51.7099 263.229 51.7567 262.37 51.6V48.8C262.84 48.9166 263.332 48.9037 263.796 48.7629C264.259 48.622 264.675 48.3584 265 48C265.68 46.8923 265.982 45.5939 265.86 44.3L265.89 34.49Z" fill="black"/>
<path d="M281.15 34.49H295.77V37.36H290V51.57H287V37.36H281.16L281.15 34.49Z" fill="black"/>
<path d="M314.08 44.4H299.77C300 45.7945 300.742 47.0531 301.85 47.93C303.032 48.8096 304.478 49.261 305.95 49.21C306.919 49.2796 307.888 49.0848 308.755 48.6462C309.621 48.2076 310.352 47.5418 310.87 46.72L313.4 48.15C312.599 49.3995 311.481 50.4142 310.16 51.0906C308.839 51.7669 307.362 52.0807 305.88 52C304.663 52.0436 303.45 51.8422 302.313 51.4075C301.176 50.9729 300.138 50.314 299.26 49.47C298.424 48.618 297.768 47.6055 297.334 46.4936C296.899 45.3817 296.694 44.1933 296.73 43C296.689 41.8171 296.889 40.6383 297.317 39.5348C297.745 38.4313 298.392 37.4261 299.22 36.58C300.059 35.7269 301.067 35.0585 302.18 34.6176C303.292 34.1768 304.484 33.9732 305.68 34.02C306.832 33.9817 307.978 34.2006 309.035 34.6607C310.092 35.1209 311.033 35.8106 311.79 36.68C313.385 38.4038 314.242 40.6826 314.18 43.03C314.182 43.4886 314.149 43.9466 314.08 44.4ZM305.68 36.85C304.246 36.8017 302.843 37.2741 301.73 38.18C300.637 39.0962 299.924 40.3867 299.73 41.8H311.14C310.976 40.3959 310.308 39.099 309.26 38.15C308.268 37.2905 306.993 36.8276 305.68 36.85Z" fill="black"/>
<path d="M327 34.0501C328.148 34.034 329.286 34.2599 330.34 34.713C331.395 35.1662 332.342 35.8364 333.12 36.6801C334.739 38.4059 335.64 40.6836 335.64 43.0501C335.64 45.4166 334.739 47.6942 333.12 49.4201C332.338 50.2557 331.389 50.9172 330.335 51.3618C329.28 51.8063 328.144 52.0238 327 52.0001C325.722 52.0577 324.452 51.7752 323.318 51.1814C322.185 50.5876 321.23 49.7037 320.55 48.6201V58.4001H317.55V34.4901H320.55V37.4301C321.23 36.3464 322.185 35.4626 323.318 34.8687C324.452 34.2749 325.722 33.9924 327 34.0501ZM326.63 49.1401C327.439 49.1688 328.246 49.029 328.998 48.7295C329.75 48.4299 330.432 47.9772 331 47.4001C331.56 46.8161 331.999 46.1261 332.289 45.3705C332.579 44.6149 332.715 43.809 332.69 43.0001C332.714 42.2048 332.576 41.4131 332.285 40.6724C331.995 39.9317 331.558 39.2574 331 38.6901C329.848 37.5566 328.296 36.9213 326.68 36.9213C325.064 36.9213 323.512 37.5566 322.36 38.6901C321.784 39.249 321.329 39.9195 321.021 40.6606C320.713 41.4016 320.56 42.1977 320.57 43.0001C320.555 43.8075 320.702 44.6098 321 45.3601C321.299 46.1105 321.744 46.7937 322.31 47.3701C322.874 47.9459 323.55 48.4001 324.297 48.7045C325.043 49.009 325.844 49.1572 326.65 49.1401H326.63Z" fill="black"/>
<path d="M347.24 52C346.049 52.0346 344.863 51.8254 343.755 51.3853C342.648 50.9453 341.642 50.2836 340.799 49.4409C339.956 48.5982 339.295 47.5922 338.855 46.4846C338.415 45.3771 338.205 44.1913 338.24 43C338.241 41.4178 338.659 39.8639 339.453 38.4949C340.246 37.1259 341.386 35.9902 342.758 35.2023C344.13 34.4143 345.686 34.002 347.268 34.0069C348.85 34.0118 350.403 34.4336 351.77 35.23C353.072 35.9946 354.116 37.1295 354.77 38.49L352.3 40C351.866 39.0873 351.17 38.3248 350.3 37.81C349.377 37.2555 348.317 36.9714 347.24 36.99C346.443 36.9715 345.65 37.1164 344.91 37.4156C344.171 37.7148 343.5 38.1621 342.94 38.73C342.388 39.2943 341.953 39.9619 341.66 40.6946C341.366 41.4274 341.22 42.2108 341.23 43C341.216 43.7943 341.36 44.5833 341.654 45.3215C341.947 46.0596 342.385 46.7322 342.94 47.3C343.5 47.8692 344.17 48.3181 344.909 48.619C345.649 48.9199 346.442 49.0666 347.24 49.05C348.321 49.0659 349.386 48.7858 350.32 48.24C351.206 47.7299 351.928 46.9769 352.4 46.07L354.93 47.54C354.191 48.897 353.091 50.0221 351.75 50.79C350.382 51.5903 348.825 52.0082 347.24 52Z" fill="black"/>
<path d="M363.91 42.7599L372.35 51.57H368.66L360.87 43.47V51.57H357.87V34.49H360.87V42L368.25 34.45H372.07L363.91 42.7599Z" fill="black"/>
<path d="M378.05 46.48L387.51 34.48H389.9V51.57H387V39.57L377.54 51.57H375.14V34.49H378.08L378.05 46.48Z" fill="black"/>
<path d="M397.35 46.4801L406.81 34.4801H409.2V51.5701H406.26V39.5701L396.8 51.5701H394.41V34.4901H397.35V46.4801ZM406.44 31.9301H397.21V29.3301H406.44V31.9301Z" fill="black"/>
<path d="M194.91 92.5499H191.53L189.58 87.1899H178.82L176.88 92.5499H173.5L182.41 68.6499H186L194.91 92.5499ZM184.19 72.4399L179.92 84.2199H188.49L184.19 72.4399Z" fill="black"/>
<path d="M203.07 88.87L208 75.48H211.18L204.18 93.61C203.592 95.3289 202.536 96.8494 201.13 98C199.848 98.9977 198.239 99.4793 196.62 99.35V96.62C198.687 96.78 200.223 95.64 201.23 93.2L201.5 92.59L194.09 75.48H197.23L203.07 88.87Z" fill="black"/>
<path d="M211.85 75.48H226.47V78.35H220.66V92.55H217.66V78.35H211.82L211.85 75.48Z" fill="black"/>
<path d="M236.41 93C235.026 92.9978 233.662 92.6766 232.423 92.0615C231.183 91.4463 230.103 90.5537 229.264 89.4529C228.426 88.3522 227.853 87.073 227.589 85.7148C227.326 84.3566 227.379 82.9558 227.744 81.6214C228.11 80.287 228.778 79.0549 229.698 78.0208C230.617 76.9867 231.762 76.1784 233.044 75.6588C234.327 75.1392 235.711 74.9222 237.091 75.0247C238.471 75.1273 239.809 75.5466 241 76.25C242.305 77.0103 243.351 78.1464 244 79.51L241.5 80.94C241.069 80.0282 240.371 79.2683 239.5 78.76C238.577 78.2055 237.517 77.9214 236.44 77.94C235.642 77.9209 234.849 78.0655 234.11 78.3647C233.37 78.664 232.7 79.1116 232.14 79.68C231.041 80.85 230.429 82.3948 230.429 84C230.429 85.6052 231.041 87.15 232.14 88.32C232.7 88.8884 233.37 89.336 234.11 89.6352C234.849 89.9345 235.642 90.0791 236.44 90.06C237.517 90.0736 238.577 89.7973 239.51 89.26C240.397 88.7474 241.121 87.9953 241.6 87.09L244.12 88.56C243.382 89.9113 242.285 91.0325 240.95 91.8C239.574 92.6052 238.004 93.0201 236.41 93Z" fill="black"/>
<path d="M261.21 90.4C259.732 91.8906 257.782 92.8223 255.693 93.036C253.605 93.2497 251.507 92.7323 249.757 91.572C248.007 90.4117 246.715 88.6803 246.099 86.6732C245.483 84.6661 245.583 82.5075 246.381 80.5657C247.179 78.6238 248.626 77.0189 250.475 76.0247C252.324 75.0304 254.461 74.7085 256.521 75.1137C258.58 75.5189 260.436 76.6261 261.771 78.2466C263.106 79.8671 263.837 81.9005 263.84 83.9999C263.863 85.19 263.642 86.3721 263.189 87.473C262.737 88.5739 262.063 89.5702 261.21 90.4ZM254.82 90.0999C256.207 90.0919 257.548 89.6036 258.616 88.718C259.684 87.8324 260.411 86.6043 260.676 85.2426C260.94 83.8809 260.724 82.4697 260.065 81.2492C259.406 80.0287 258.344 79.0742 257.061 78.5482C255.777 78.0222 254.351 77.9571 253.025 78.3641C251.699 78.771 250.555 79.6248 249.787 80.7802C249.02 81.9357 248.677 83.3213 248.816 84.7014C248.955 86.0815 249.567 87.3708 250.55 88.3499C251.105 88.9164 251.771 89.3637 252.505 89.6646C253.239 89.9655 254.027 90.1136 254.82 90.0999Z" fill="black"/>
<path d="M276.78 75C277.927 74.9858 279.065 75.2125 280.119 75.6655C281.173 76.1186 282.121 76.7878 282.9 77.63C284.519 79.3558 285.42 81.6335 285.42 84C285.42 86.3665 284.519 88.6441 282.9 90.37C282.119 91.2082 281.171 91.8728 280.117 92.3207C279.062 92.7687 277.925 92.9899 276.78 92.97C275.502 93.0255 274.233 92.7421 273.1 92.1485C271.967 91.5549 271.012 90.6722 270.33 89.59V99.36H267.33V75.48H270.33V78.41C271.008 77.3222 271.962 76.4335 273.095 75.8345C274.228 75.2355 275.5 74.9475 276.78 75ZM276.41 90.1C277.208 90.1184 278 89.9736 278.74 89.6744C279.479 89.3752 280.15 88.9279 280.71 88.36C281.274 87.7845 281.718 87.1028 282.017 86.3544C282.316 85.6059 282.463 84.8057 282.45 84C282.471 83.1962 282.328 82.3966 282.028 81.6502C281.729 80.9039 281.281 80.2266 280.71 79.66C279.562 78.5193 278.009 77.8791 276.39 77.8791C274.771 77.8791 273.218 78.5193 272.07 79.66C271.5 80.2266 271.051 80.9039 270.752 81.6502C270.453 82.3966 270.309 83.1962 270.33 84C270.316 84.8074 270.462 85.6095 270.761 86.3597C271.06 87.11 271.505 87.7933 272.07 88.37C272.635 88.944 273.312 89.3963 274.058 89.699C274.804 90.0017 275.605 90.1484 276.41 90.13V90.1Z" fill="black"/>
<path d="M297 92.9999C294.613 92.9999 292.324 92.0517 290.636 90.3639C288.948 88.676 288 86.3869 288 83.9999C288 81.613 288.948 79.3238 290.636 77.6359C292.324 75.9481 294.613 74.9999 297 74.9999C298.597 74.977 300.169 75.3995 301.54 76.2199C302.845 76.9802 303.891 78.1163 304.54 79.4799L302.05 80.9099C301.615 80.0002 300.919 79.2411 300.05 78.7299C299.127 78.1754 298.067 77.8913 296.99 77.9099C296.192 77.8908 295.399 78.0354 294.66 78.3347C293.92 78.6339 293.25 79.0815 292.69 79.6499C291.591 80.8199 290.979 82.3647 290.979 83.9699C290.979 85.5751 291.591 87.1199 292.69 88.2899C293.25 88.8583 293.92 89.3059 294.66 89.6052C295.399 89.9044 296.192 90.049 296.99 90.0299C298.067 90.0435 299.127 89.7672 300.06 89.2299C300.949 88.7204 301.674 87.9675 302.15 87.0599L304.68 88.5299C303.938 89.8816 302.838 91.0027 301.5 91.7699C300.139 92.5786 298.584 93.0037 297 92.9999Z" fill="black"/>
<path d="M310.59 87.47L320.06 75.47H322.45V92.55H319.51V80.55L310.05 92.55H307.66V75.48H310.59V87.47Z" fill="black"/>
<path d="M338.77 82.58V75.48H341.77V92.55H338.77V85.42H329.93V92.55H326.93V75.48H329.93V82.58H338.77Z" fill="black"/>
<path d="M346.25 75.48H357.45V78.35H349.22V92.55H346.22L346.25 75.48Z" fill="black"/>
</g>
<defs>
<clipPath id="clip0">
<rect width="409.2" height="99.4" fill="white"/>
</clipPath>
</defs>
</svg>
