<svg width="359" height="93" viewBox="0 0 359 93" fill="none" xmlns="http://www.w3.org/2000/svg">
<g clip-path="url(#clip0)">
<path fill-rule="evenodd" clip-rule="evenodd" d="M182.83 78H176.72L160.55 60V78H155.55V40.52H160.55V57.45L176.19 40.52H182.29L165.75 58.73L182.83 78ZM207 74.64C204.325 77.2494 200.737 78.71 197 78.71C193.263 78.71 189.675 77.2494 187 74.64C184.381 71.9703 182.914 68.3798 182.914 64.64C182.914 60.9002 184.381 57.3097 187 54.64C188.976 52.6604 191.495 51.3119 194.239 50.7653C196.982 50.2187 199.826 50.4985 202.41 51.5694C204.994 52.6403 207.202 54.454 208.754 56.7808C210.307 59.1076 211.133 61.8429 211.13 64.64C211.167 66.5013 210.819 68.3501 210.108 70.0708C209.397 71.7915 208.339 73.347 207 74.64ZM197 74.16C198.255 74.1791 199.502 73.945 200.664 73.4715C201.827 72.9981 202.882 72.2951 203.767 71.4046C204.652 70.5141 205.349 69.4543 205.815 68.2886C206.281 67.1229 206.507 65.8752 206.48 64.62C206.507 63.3653 206.281 62.1181 205.815 60.9529C205.348 59.7877 204.652 58.7286 203.767 57.8388C202.882 56.9491 201.826 56.2471 200.664 55.7748C199.501 55.3024 198.255 55.0696 197 55.09C195.756 55.064 194.52 55.2927 193.368 55.7622C192.216 56.2317 191.172 56.932 190.3 57.82C188.547 59.6499 187.569 62.086 187.569 64.62C187.569 67.154 188.547 69.5901 190.3 71.42C191.17 72.3113 192.213 73.0144 193.366 73.4857C194.518 73.957 195.755 74.1866 197 74.16ZM235.18 51.23H239.84V78H235.18V66.82H221.28V78H216.62V51.23H221.28V62.37H235.15V51.23H235.18ZM259.5 78.71C257.638 78.7538 255.786 78.4193 254.057 77.7267C252.327 77.0342 250.757 75.9979 249.439 74.6807C248.122 73.3635 247.086 71.7927 246.393 70.0634C245.701 68.3341 245.366 66.4823 245.41 64.62C245.368 62.7586 245.703 60.9078 246.396 59.1797C247.09 57.4516 248.126 55.882 249.443 54.5659C250.76 53.2498 252.33 52.2144 254.059 51.5224C255.788 50.8305 257.639 50.4963 259.5 50.54C262.004 50.5019 264.468 51.1596 266.62 52.44C268.664 53.6363 270.304 55.4156 271.33 57.55L267.42 59.8C266.744 58.3716 265.653 57.1799 264.29 56.38C262.477 55.3317 260.371 54.9051 258.293 55.165C256.215 55.425 254.279 56.3574 252.78 57.82C251.04 59.6462 250.069 62.0722 250.069 64.595C250.069 67.1178 251.04 69.5438 252.78 71.37C253.652 72.2629 254.699 72.9663 255.855 73.436C257.012 73.9058 258.252 74.1318 259.5 74.1C261.191 74.1237 262.857 73.6882 264.32 72.84C265.714 72.0441 266.849 70.8638 267.59 69.44L271.59 71.75C270.442 73.8569 268.736 75.6075 266.66 76.81C264.503 78.077 262.042 78.7338 259.54 78.71H259.5ZM297.95 51.23H302.61V78H297.95V73.4C296.882 75.0985 295.382 76.4837 293.605 77.4147C291.827 78.3456 289.835 78.7891 287.83 78.7C286.034 78.7237 284.253 78.3711 282.601 77.665C280.949 76.9589 279.464 75.9148 278.24 74.6C275.69 71.8947 274.27 68.3176 274.27 64.6C274.27 60.8825 275.69 57.3054 278.24 54.6C279.464 53.2865 280.95 52.244 282.602 51.5396C284.254 50.8352 286.035 50.4844 287.83 50.51C289.835 50.4209 291.827 50.8644 293.605 51.7954C295.382 52.7263 296.882 54.1115 297.95 55.81V51.23ZM288.42 74.23C289.682 74.2624 290.938 74.034 292.108 73.5591C293.278 73.0842 294.337 72.373 295.22 71.47C296.972 69.6278 297.95 67.1825 297.95 64.64C297.95 62.0975 296.972 59.6522 295.22 57.81C293.406 56.0464 290.975 55.0598 288.445 55.0598C285.915 55.0598 283.484 56.0464 281.67 57.81C279.918 59.6522 278.941 62.0975 278.941 64.64C278.941 67.1825 279.918 69.6278 281.67 71.47C282.545 72.3697 283.596 73.0791 284.757 73.5541C285.919 74.029 287.166 74.2591 288.42 74.23ZM332.01 51.23V78H327.35V55.73H316.77V66.66C316.77 71.0534 315.887 74.1133 314.12 75.84C312.36 77.57 309.87 78.3 306.65 78.01V73.62C307.379 73.7946 308.14 73.7757 308.86 73.5652C309.579 73.3547 310.23 72.9599 310.75 72.42C311.66 71.36 312.11 69.42 312.11 66.55V51.23H332.01ZM359.01 51.23V55.73H349.9V78H345.24V55.73H336.08V51.23H359.01Z" fill="#080200"/>
<path fill-rule="evenodd" clip-rule="evenodd" d="M7.79 26.54H138.18V85C138.18 87.0661 137.359 89.0475 135.898 90.5084C134.437 91.9693 132.456 92.79 130.39 92.79H7.79C5.72396 92.79 3.74255 91.9693 2.28164 90.5084C0.82073 89.0475 0 87.0661 0 85L0 34.33C0 32.264 0.82073 30.2826 2.28164 28.8217C3.74255 27.3608 5.72396 26.54 7.79 26.54Z" fill="#00905A"/>
<path fill-rule="evenodd" clip-rule="evenodd" d="M154.38 19.48C157 16 158.26 10 156.22 0C130.48 4 136 17.91 138.46 22.26C142.251 16.3819 146.722 10.9712 151.78 6.14C148.351 11.0938 145.385 16.3527 142.92 21.85C146.39 17.85 150.46 17.64 154.38 19.48ZM162.48 27.64C151.2 40.36 145.15 33.32 142.9 29.5C146.403 28.3347 150.092 27.8262 153.78 28C150.057 26.8504 146.162 26.3597 142.27 26.55C143.64 23.26 149.28 13.55 162.48 27.64Z" fill="#85BC22"/>
<path fill-rule="evenodd" clip-rule="evenodd" d="M78.76 41.08H82.15V44.47H78.76V41.08ZM30.21 62.32L38.63 41.08H44.23L31.29 71.57C29.39 76.04 26.9 78.02 22.29 78.2C19.899 78.2363 17.5231 77.8154 15.29 76.96V72.69C19.66 73.97 20.23 74.1199 21.79 74.09C23.92 74.09 25.72 72.95 27.79 68.17L15.32 41.08H20.73L30.21 62.32ZM66.92 78.2H62.25V68.33C60.1972 68.8708 58.0829 69.143 55.96 69.14C49.41 69.14 45.52 65.76 45.46 59.08V51H50.11V59.27C50.11 63.33 52.11 65.1 55.96 65.1C58.0829 65.103 60.1972 64.8308 62.25 64.29V51H66.92V78.2ZM85.52 78.2C76.8 78.2 72.58 72.48 72.58 64.51C72.58 57.51 77.09 51.02 84.92 51.02C94.68 51.02 96.53 58.15 96.53 65.9H76.88C76.8751 67.0418 77.1014 68.1728 77.5452 69.2248C77.9891 70.2769 78.6413 71.2282 79.4626 72.0215C80.2839 72.8147 81.2573 73.4335 82.3241 73.8406C83.3909 74.2476 84.5291 74.4345 85.67 74.39C87.1054 74.4507 88.5352 74.176 89.8458 73.5875C91.1564 72.999 92.3118 72.1131 93.22 71L96.22 73.13C93.82 76.51 90.2534 78.2 85.52 78.2ZM84.92 54.69C80.37 54.69 77.56 58.26 77.04 62.23H92.23C92.23 58.16 89.48 54.69 84.92 54.69ZM122.85 54.78H113.73V78.2H109.08V54.78H100.08V51H122.8V54.76L122.85 54.78ZM87 41.11H90.39V44.5H87V41.11Z" fill="white"/>
</g>
<defs>
<clipPath id="clip0">
<rect width="358.98" height="92.76" fill="white"/>
</clipPath>
</defs>
</svg>
