<svg width="265" height="93" viewBox="0 0 265 93" fill="none" xmlns="http://www.w3.org/2000/svg">
<g clip-path="url(#clip0)">
<path fill-rule="evenodd" clip-rule="evenodd" d="M7.79 26.54H138.18V85C138.18 87.0661 137.359 89.0475 135.898 90.5084C134.437 91.9693 132.456 92.79 130.39 92.79H7.79C5.72396 92.79 3.74255 91.9693 2.28164 90.5084C0.82073 89.0475 0 87.0661 0 85L0 34.33C0 32.264 0.82073 30.2826 2.28164 28.8217C3.74255 27.3608 5.72396 26.54 7.79 26.54Z" fill="#FFE000"/>
<path fill-rule="evenodd" clip-rule="evenodd" d="M154.38 19.48C157 16 158.26 10 156.22 0C130.48 4 136 17.91 138.46 22.26C142.251 16.3819 146.722 10.9712 151.78 6.14C148.351 11.0938 145.385 16.3527 142.92 21.85C146.39 17.85 150.46 17.64 154.38 19.48ZM162.48 27.64C151.2 40.36 145.15 33.32 142.9 29.5C146.403 28.3347 150.092 27.8262 153.78 28C150.057 26.8504 146.162 26.3597 142.27 26.55C143.64 23.26 149.28 13.55 162.48 27.64Z" fill="#85BC22"/>
<path fill-rule="evenodd" clip-rule="evenodd" d="M78.76 41.0801H82.15V44.4701H78.76V41.0801ZM30.21 62.3201L38.63 41.0801H44.23L31.29 71.5701C29.39 76.0401 26.9 78.0201 22.29 78.2001C19.899 78.2364 17.5231 77.8155 15.29 76.9601V72.6901C19.66 73.9701 20.23 74.1201 21.79 74.0901C23.92 74.0901 25.72 72.9501 27.79 68.1701L15.32 41.0801H20.73L30.21 62.3201ZM66.92 78.2001H62.25V68.3301C60.2005 68.8703 58.0896 69.1425 55.97 69.1401C49.41 69.1401 45.52 65.7601 45.46 59.0801V51.0001H50.11V59.2701C50.11 63.3301 52.11 65.1001 55.97 65.1001C58.0896 65.1025 60.2005 64.8303 62.25 64.2901V51.0001H66.92V78.2001ZM85.52 78.2001C76.8 78.2001 72.58 72.4801 72.58 64.5101C72.58 57.5101 77.09 51.0201 84.92 51.0201C94.68 51.0201 96.53 58.1501 96.53 65.9001H76.88C76.8751 67.0419 77.1014 68.1729 77.5452 69.225C77.9891 70.277 78.6413 71.2283 79.4626 72.0216C80.2839 72.8148 81.2573 73.4336 82.3241 73.8407C83.3909 74.2477 84.5291 74.4346 85.67 74.3901C87.1054 74.4509 88.5352 74.1761 89.8458 73.5876C91.1564 72.9992 92.3118 72.1132 93.22 71.0001L96.22 73.1301C93.82 76.5101 90.2534 78.2001 85.52 78.2001ZM84.92 54.6901C80.37 54.6901 77.56 58.2601 77.04 62.2301H92.23C92.23 58.1601 89.48 54.6901 84.92 54.6901ZM122.85 54.7801H113.73V78.2001H109.08V54.7801H100.08V51.0001H122.8V54.7601L122.85 54.7801ZM87 41.1101H90.39V44.5001H87V41.1101Z" fill="white"/>
<path d="M172.46 78.93C169.814 79.0079 167.179 78.5469 164.717 77.575C162.254 76.6032 160.015 75.1408 158.135 73.2768C156.255 71.4127 154.773 69.1859 153.781 66.7316C152.788 64.2774 152.305 61.6469 152.36 59C152.367 55.5152 153.285 52.0928 155.022 49.0718C156.759 46.0508 159.255 43.5361 162.263 41.7768C165.272 40.0176 168.687 39.0749 172.172 39.0421C175.657 39.0094 179.089 39.8877 182.13 41.59C185.017 43.1833 187.411 45.539 189.05 48.4L184.6 51C183.492 48.865 181.786 47.0995 179.69 45.92C177.493 44.6523 174.996 43.9962 172.46 44.02C170.467 43.9416 168.479 44.2756 166.621 45.001C164.763 45.7265 163.074 46.8277 161.662 48.2358C160.249 49.6439 159.142 51.3285 158.41 53.1842C157.679 55.0399 157.338 57.0266 157.41 59.02C157.345 61.0088 157.691 62.9897 158.426 64.8389C159.161 66.6881 160.269 68.366 161.681 69.7679C163.093 71.1698 164.779 72.2656 166.634 72.9869C168.488 73.7081 170.472 74.0394 172.46 73.96C175.002 73.9661 177.499 73.2892 179.69 72C181.77 70.836 183.474 69.1011 184.6 67L189.05 69.53C187.425 72.3946 185.055 74.7653 182.19 76.39C179.232 78.0901 175.872 78.9672 172.46 78.93Z" fill="#1A1A18"/>
<path d="M223.27 78.2199H217.62L209 63.4899H199.94V78.2199H194.83V39.7599H210.2C211.776 39.7379 213.339 40.0389 214.794 40.6443C216.249 41.2496 217.565 42.1466 218.66 43.2799C220.673 45.2366 221.91 47.856 222.142 50.6539C222.373 53.4517 221.584 56.2388 219.92 58.4999C218.504 60.4948 216.511 62.0092 214.21 62.8399L223.27 78.2199ZM210.2 44.5399H199.93V58.8799H210.2C211.102 58.8896 211.996 58.7084 212.824 58.3482C213.651 57.988 214.393 57.4569 215 56.7899C215.658 56.1151 216.174 55.3152 216.518 54.4375C216.861 53.5598 217.025 52.6221 217 51.6799C217.02 50.7548 216.853 49.8352 216.51 48.9761C216.166 48.117 215.653 47.336 215 46.6799C214.396 46.0053 213.656 45.4659 212.829 45.0971C212.002 44.7283 211.106 44.5385 210.2 44.5399Z" fill="#1A1A18"/>
<path d="M258.59 39.76H264.36V78.22H259.31V48.22L246.73 69.1H246.07L233.49 48.22V78.22H228.38V39.76H234.15L246.4 60.09L258.59 39.76Z" fill="#1A1A18"/>
</g>
<defs>
<clipPath id="clip0">
<rect width="264.36" height="92.76" fill="white"/>
</clipPath>
</defs>
</svg>
