<svg width="425" height="89" viewBox="0 0 425 89" fill="none" xmlns="http://www.w3.org/2000/svg">
<path fill-rule="evenodd" clip-rule="evenodd" d="M7.4 25.7C48.6 25.7 89.8 25.7 131 25.7C131 44.2 131 62.6 131 81.1C131 85.2 127.7 88.5 123.6 88.5H7.4C3.3 88.5 0 85.2 0 81.1V33.1C0 29 3.3 25.7 7.4 25.7Z" fill="#F77D64"/>
<path fill-rule="evenodd" clip-rule="evenodd" d="M146.4 18.5C148.8 15.2 150.1 9.5 148.1 0C123.7 3.8 128.9 17 131.3 21.1C134.2 16.3 140.1 9.3 143.9 5.8C141.4 9.5 137.6 15.6 135.5 20.7C138.8 17 142.7 16.8 146.4 18.5ZM154.1 26.2C143.4 38.3 137.7 31.6 135.5 28C138.8 26.9 142.3 26.4 145.8 26.6C142.3 25.5 138.6 25 134.9 25.2C136.2 22.1 141.5 12.9 154.1 26.2Z" fill="#78C152"/>
<path fill-rule="evenodd" clip-rule="evenodd" d="M74.7 39H77.9V42.2H74.7V39ZM28.6 59.1L36.6 39H41.9L29.6 67.9C27.8 72.1 25.4 74 21.1 74.2C19.1 74.3 16.8 73.9 14.5 73V69C18.6 70.2 19.2 70.4 20.7 70.3C22.7 70.3 24.4 69.2 26.4 64.7L14.5 39H19.6L28.6 59.1ZM63.5 74.2H59.1V64.8C57.2 65.3 55.2 65.6 53.1 65.6C46.9 65.6 43.2 62.4 43.1 56.1V48.4H47.5V56.2C47.5 60 49.4 61.7 53 61.7C55 61.7 57 61.4 59 60.9V48.3H63.4V74.2H63.5ZM81.1 74.2C72.8 74.2 68.8 68.8 68.8 61.2C68.8 54.6 73.1 48.4 80.5 48.4C89.8 48.4 91.5 55.2 91.5 62.5H72.9C73 67 76.3 70.5 81.2 70.5C84.2 70.5 86.5 69.5 88.4 67.3L91.2 69.3C88.9 72.6 85.6 74.2 81.1 74.2ZM80.5 51.9C76.2 51.9 73.5 55.3 73 59H87.4C87.4 55.2 84.8 51.9 80.5 51.9ZM116.5 52H107.8V74.2H103.4V52H94.9V48.4H116.4V52H116.5ZM82.5 39H85.7V42.2H82.5V39Z" fill="white"/>
<path d="M164.7 38.3C169.9 38.3 174.2 40.2 177.7 43.9C181.2 47.6 182.9 52.1 182.9 57.5C182.9 62.8 181.2 67.4001 177.7 71.1001C174.2 74.8001 169.9 76.6001 164.7 76.6001H149.8V38.3H164.7ZM164.7 71.8C168.6 71.8 171.8 70.4 174.3 67.7C176.8 64.9 178 61.5 178 57.5C178 53.5 176.8 50 174.3 47.3C171.8 44.6 168.6 43.2 164.7 43.2H154.9V71.9H164.7V71.8Z" fill="black"/>
<path d="M211.2 49.3001H216V76.7001H211.2V72.0001C208.8 75.6001 205.4 77.4001 200.9 77.4001C197 77.4001 193.8 76.0001 191.1 73.2001C188.4 70.4001 187.1 67.0001 187.1 63.0001C187.1 59.0001 188.4 55.6001 191.1 52.8001C193.8 50.0001 197.1 48.6001 200.9 48.6001C205.4 48.6001 208.9 50.4001 211.2 54.0001V49.3001ZM201.5 72.8001C204.3 72.8001 206.6 71.9001 208.4 70.0001C210.3 68.1001 211.2 65.8001 211.2 63.0001C211.2 60.2001 210.3 57.9001 208.4 56.1001C206.5 54.2001 204.2 53.3001 201.5 53.3001C198.8 53.3001 196.5 54.2001 194.6 56.1001C192.7 58.0001 191.8 60.3001 191.8 63.0001C191.8 65.8001 192.7 68.1001 194.6 70.0001C196.4 71.8001 198.7 72.8001 201.5 72.8001Z" fill="black"/>
<path d="M227.2 56.7C227.2 57.8 227.7 58.6 228.8 59.2C229.8 59.8 231.1 60.4 232.7 60.8C233.8 61 234.9 61.3 236 61.7C237.2 62.1 238.2 62.6 239.2 63.2C240.2 63.8 241 64.6 241.6 65.6C242.2 66.6 242.5 67.8 242.5 69.2C242.5 71.7 241.5 73.7 239.6 75.2C237.7 76.7 235.2 77.4 232.3 77.4C229.6 77.4 227.4 76.8 225.5 75.7C223.6 74.6 222.3 73 221.5 71L225.6 68.6C226 69.9 226.9 71 228.1 71.7C229.3 72.5 230.7 72.8 232.4 72.8C234 72.8 235.3 72.5 236.3 71.9C237.3 71.3 237.8 70.4 237.8 69.1C237.8 68 237.3 67.2 236.2 66.6C235.2 66 233.9 65.5 232.3 65.1C231.2 64.8 230.1 64.5 228.9 64.1C227.7 63.7 226.7 63.3 225.7 62.6C224.7 62 223.9 61.2 223.3 60.3C222.7 59.4 222.4 58.1 222.4 56.7C222.4 54.3 223.3 52.4 225.1 50.8C227 49.3 229.3 48.5 232 48.5C234.2 48.5 236.2 49 237.9 50C239.6 51 240.9 52.4 241.8 54.2L237.8 56.4C236.8 54.1 234.8 52.9 231.9 52.9C230.5 52.9 229.4 53.2 228.4 53.9C227.6 54.6 227.2 55.5 227.2 56.7Z" fill="black"/>
<path d="M261.5 48.6001C263.1 48.6001 264.6 48.9 265.9 49.4C267.2 49.9 268.3 50.7001 269.2 51.6001C270.1 52.6001 270.9 53.7001 271.4 55.1001C271.9 56.5001 272.2 58.1 272.2 59.8V76.6001H267.4V60.1001C267.4 57.9001 266.8 56.2 265.6 54.9C264.4 53.7 262.7 53.1001 260.6 53.1001C258.2 53.1001 256.3 53.8 254.9 55.3C253.5 56.8 252.7 59.0001 252.7 62.1001V76.6001H247.9V38.3H252.7V53.2C254.6 50.1 257.5 48.6001 261.5 48.6001Z" fill="black"/>
<path d="M293.9 48.6002C297.7 48.6002 301 50.0002 303.7 52.8002C306.4 55.6002 307.7 59.0002 307.7 63.0002C307.7 67.0002 306.4 70.4002 303.7 73.2001C301 76.0001 297.8 77.4001 293.9 77.4001C289.3 77.4001 285.9 75.6002 283.6 72.0002V76.7001H278.8V38.4001H283.6V54.0002C285.9 50.4002 289.3 48.6002 293.9 48.6002ZM293.3 72.8002C296 72.8002 298.3 71.9002 300.2 70.0002C302.1 68.1002 303 65.8002 303 63.0002C303 60.2002 302.1 57.9002 300.2 56.1002C298.3 54.2002 296 53.3002 293.3 53.3002C290.5 53.3002 288.2 54.2002 286.4 56.1002C284.5 58.0002 283.6 60.3002 283.6 63.0002C283.6 65.8002 284.5 68.1002 286.4 70.0002C288.2 71.8002 290.5 72.8002 293.3 72.8002Z" fill="black"/>
<path d="M336.5 73.2001C333.7 76.0001 330.3 77.4001 326.3 77.4001C322.3 77.4001 318.8 76.0001 316.1 73.2001C313.3 70.4001 311.9 67.0001 311.9 63.0001C311.9 59.0001 313.3 55.5001 316.1 52.8001C318.9 50.0001 322.3 48.6001 326.3 48.6001C330.3 48.6001 333.8 50.0001 336.5 52.8001C339.3 55.6001 340.7 59.0001 340.7 63.0001C340.7 67.0001 339.3 70.4001 336.5 73.2001ZM326.3 72.8001C329 72.8001 331.3 71.9001 333.2 70.0001C335.1 68.1001 336 65.8001 336 63.0001C336 60.2001 335.1 57.9001 333.2 56.0001C331.3 54.1001 329 53.2001 326.3 53.2001C323.6 53.2001 321.3 54.1001 319.5 56.0001C317.6 57.9001 316.7 60.2001 316.7 63.0001C316.7 65.8001 317.6 68.1001 319.5 70.0001C321.3 71.8001 323.6 72.8001 326.3 72.8001Z" fill="black"/>
<path d="M369 49.3001H373.8V76.7001H369V72.0001C366.6 75.6001 363.2 77.4001 358.7 77.4001C354.8 77.4001 351.6 76.0001 348.9 73.2001C346.2 70.4001 344.9 67.0001 344.9 63.0001C344.9 59.0001 346.2 55.6001 348.9 52.8001C351.6 50.0001 354.9 48.6001 358.7 48.6001C363.2 48.6001 366.7 50.4001 369 54.0001V49.3001ZM359.2 72.8001C362 72.8001 364.3 71.9001 366.1 70.0001C368 68.1001 368.9 65.8001 368.9 63.0001C368.9 60.2001 368 57.9001 366.1 56.1001C364.2 54.2001 361.9 53.3001 359.2 53.3001C356.5 53.3001 354.2 54.2001 352.3 56.1001C350.4 58.0001 349.5 60.3001 349.5 63.0001C349.5 65.8001 350.4 68.1001 352.3 70.0001C354.2 71.8001 356.5 72.8001 359.2 72.8001Z" fill="black"/>
<path d="M385.7 53.9C387.3 50.5 390.1 48.8 394.2 48.8V53.7C391.9 53.6 389.9 54.2001 388.2 55.6001C386.5 57.0001 385.7 59.1001 385.7 62.1001V76.6001H380.9V49.2H385.7V53.9Z" fill="black"/>
<path d="M420.1 38.3H424.9V76.6001H420.1V71.9C417.7 75.5 414.3 77.3 409.8 77.3C405.9 77.3 402.7 75.9001 400 73.1001C397.3 70.3001 396 66.9 396 62.9C396 58.9 397.3 55.5 400 52.7C402.7 49.9 406 48.5 409.8 48.5C414.3 48.5 417.8 50.3 420.1 53.9V38.3ZM410.3 72.8C413.1 72.8 415.4 71.9 417.2 70C419.1 68.1 420 65.8 420 63C420 60.2 419.1 57.9001 417.2 56.1001C415.3 54.2001 413 53.3 410.3 53.3C407.6 53.3 405.3 54.2001 403.4 56.1001C401.5 58.0001 400.6 60.3 400.6 63C400.6 65.8 401.5 68.1 403.4 70C405.3 71.8 407.6 72.8 410.3 72.8Z" fill="black"/>
</svg>
