<svg width="402" height="93" viewBox="0 0 402 93" fill="none" xmlns="http://www.w3.org/2000/svg">
<g clip-path="url(#clip0)">
<path fill-rule="evenodd" clip-rule="evenodd" d="M186.77 73C184.058 75.7372 180.592 77.6047 176.814 78.3642C173.036 79.1238 169.118 78.7411 165.558 77.265C161.999 75.7889 158.959 73.2861 156.828 70.0759C154.696 66.8657 153.569 63.0934 153.59 59.24C153.531 56.6534 153.99 54.081 154.939 51.6741C155.889 49.2672 157.309 47.0742 159.118 45.2241C160.927 43.3739 163.087 41.9038 165.472 40.9001C167.856 39.8964 170.418 39.3794 173.005 39.3794C175.592 39.3794 178.154 39.8964 180.538 40.9001C182.923 41.9038 185.083 43.3739 186.892 45.2241C188.701 47.0742 190.121 49.2672 191.071 51.6741C192.02 54.081 192.479 56.6534 192.42 59.24C192.464 61.7973 191.985 64.3366 191.014 66.7026C190.042 69.0686 188.598 71.2114 186.77 73ZM162.67 69.6C165.424 72.293 169.123 73.8008 172.975 73.8008C176.827 73.8008 180.526 72.293 183.28 69.6C184.639 68.2449 185.708 66.6278 186.423 64.847C187.138 63.0661 187.484 61.1586 187.44 59.24C187.488 57.312 187.145 55.3942 186.429 53.6031C185.714 51.8119 184.643 50.1847 183.28 48.82C180.526 46.1271 176.827 44.6192 172.975 44.6192C169.123 44.6192 165.424 46.1271 162.67 48.82C161.309 50.1855 160.239 51.8131 159.526 53.6043C158.812 55.3954 158.47 57.3127 158.52 59.24C158.474 61.158 158.818 63.0653 159.531 64.8461C160.245 66.627 161.312 68.2444 162.67 69.6ZM210.09 78.68C208.275 78.7391 206.468 78.4222 204.781 77.7493C203.095 77.0765 201.566 76.0621 200.29 74.77C199.001 73.4386 197.994 71.8602 197.331 70.1296C196.667 68.399 196.361 66.5521 196.43 64.7C196.43 60.1267 197.097 56.61 198.43 54.15C199.77 51.69 202.51 49.45 206.65 47.46C207.4 47.1 208.43 46.63 209.73 46.06C211.03 45.49 211.99 45.06 212.6 44.75C213.294 44.3868 213.963 43.9758 214.6 43.52C215.279 43.0731 215.855 42.4868 216.29 41.8C216.681 41.1295 216.962 40.4001 217.12 39.64L220.87 41.78C220.771 42.3178 220.627 42.8463 220.44 43.36C220.249 43.8587 219.986 44.3269 219.66 44.75L218.78 45.9C218.415 46.2972 217.99 46.6346 217.52 46.9C216.93 47.27 216.52 47.55 216.24 47.73C215.735 48.0243 215.214 48.2913 214.68 48.53L213.13 49.25C212.863 49.3834 212.263 49.6334 211.33 50C210.41 50.38 209.84 50.62 209.62 50.73C207.68 51.5049 205.89 52.6114 204.33 54C203.188 55.101 202.351 56.4792 201.9 58C203.019 56.5835 204.497 55.4924 206.18 54.84C207.814 54.1827 209.559 53.8433 211.32 53.84C212.928 53.8134 214.524 54.1138 216.012 54.7232C217.5 55.3326 218.848 56.2382 219.975 57.3849C221.102 58.5316 221.984 59.8955 222.568 61.3937C223.152 62.8919 223.424 64.4931 223.37 66.1C223.414 67.7797 223.103 69.4497 222.456 71.0006C221.81 72.5516 220.844 73.9486 219.62 75.1C218.343 76.2902 216.844 77.2172 215.209 77.828C213.574 78.4389 211.834 78.7216 210.09 78.66V78.68ZM203.82 71.82C205.519 73.3998 207.771 74.2476 210.09 74.18C212.376 74.2588 214.6 73.4323 216.28 71.88C217.071 71.1414 217.697 70.2435 218.116 69.2455C218.534 68.2475 218.737 67.172 218.71 66.09C218.75 65.005 218.564 63.9234 218.163 62.9144C217.762 61.9054 217.154 60.9912 216.38 60.23C215.559 59.467 214.594 58.8764 213.541 58.4933C212.488 58.1103 211.369 57.9425 210.25 58C207.999 57.9917 205.813 58.7579 204.06 60.17C203.182 60.8335 202.475 61.6966 201.996 62.6878C201.518 63.679 201.283 64.7698 201.31 65.87C201.277 66.9912 201.484 68.1064 201.917 69.1411C202.35 70.1758 202.999 71.1062 203.82 71.87V71.82ZM245.92 51.2H250.92L240 79.67C239.081 82.3922 237.41 84.7984 235.18 86.61C233.174 88.1807 230.648 88.9345 228.11 88.72V84.39C231.397 84.6434 233.807 82.8567 235.34 79.03L235.77 78.03L224.12 51.23H229.05L238.21 72.23L245.92 51.23V51.2ZM271.68 51.2H276.34V78H271.68V68.37C269.391 69.3266 266.93 69.7998 264.45 69.76C261.017 69.76 258.367 68.95 256.5 67.33C254.633 65.71 253.693 63.3067 253.68 60.12V51.23H258.34V59.86C258.34 61.86 258.89 63.28 259.98 64.14C261.387 65.0937 263.074 65.5479 264.77 65.43C267.147 65.4617 269.503 64.9843 271.68 64.03V51.23V51.2ZM286.68 66.74C287.034 68.9611 288.221 70.9637 290 72.34C291.848 73.7068 294.103 74.4113 296.4 74.34C299.93 74.34 302.5 73.03 304.11 70.43L308.11 72.68C305.51 76.68 301.583 78.68 296.33 78.68C294.422 78.7552 292.518 78.4391 290.736 77.7512C288.955 77.0633 287.333 76.0182 285.97 74.68C284.649 73.3586 283.613 71.7808 282.925 70.0438C282.237 68.3068 281.912 66.4474 281.97 64.58C281.914 62.7253 282.232 60.8782 282.904 59.1484C283.575 57.4186 284.587 55.8413 285.88 54.51C287.197 53.1781 288.777 52.1347 290.519 51.4461C292.262 50.7575 294.128 50.4387 296 50.51C297.808 50.4524 299.607 50.7944 301.268 51.5117C302.93 52.2291 304.412 53.3041 305.61 54.66C308.088 57.3925 309.423 60.972 309.34 64.66C309.335 65.3596 309.281 66.0579 309.18 66.75L286.68 66.74ZM295.94 54.9C293.701 54.7869 291.501 55.525 289.784 56.9662C288.066 58.4075 286.957 60.4451 286.68 62.67H304.56C304.329 60.43 303.256 58.361 301.56 56.88C299.987 55.5619 297.992 54.8522 295.94 54.88V54.9ZM333.16 51.2H337.82V78H333.16V66.82H319.29V78H314.63V51.23H319.29V62.37H333.16V51.23V51.2ZM364.33 51.2H368.08V78H363.47V59.21L348.64 78H344.89V51.23H349.5V70L364.33 51.2ZM378.42 66.74C378.774 68.9457 379.949 70.9357 381.71 72.31C383.559 73.6754 385.813 74.3797 388.11 74.31C391.65 74.31 394.22 73 395.82 70.4L399.82 72.65C397.207 76.65 393.277 78.65 388.03 78.65C386.122 78.7252 384.218 78.4091 382.436 77.7212C380.655 77.0333 379.033 75.9882 377.67 74.65C376.349 73.3286 375.313 71.7508 374.625 70.0138C373.937 68.2768 373.612 66.4174 373.67 64.55C373.614 62.6953 373.932 60.8482 374.604 59.1184C375.275 57.3887 376.287 55.8113 377.58 54.48C378.898 53.1491 380.478 52.1063 382.22 51.4178C383.962 50.7293 385.828 50.4099 387.7 50.48C389.51 50.423 391.31 50.7652 392.973 51.4825C394.635 52.1997 396.12 53.2744 397.32 54.63C399.791 57.3662 401.122 60.944 401.04 64.63C401.035 65.3296 400.981 66.0279 400.88 66.72L378.42 66.74ZM387.68 54.9C385.441 54.7869 383.241 55.525 381.524 56.9662C379.806 58.4075 378.697 60.4451 378.42 62.67H396.3C396.066 60.4309 394.994 58.3629 393.3 56.88C391.717 55.5838 389.725 54.8926 387.68 54.93V54.9Z" fill="#080200"/>
<path fill-rule="evenodd" clip-rule="evenodd" d="M7.79 26.54H138.18V85C138.18 87.0661 137.359 89.0475 135.898 90.5084C134.437 91.9693 132.456 92.79 130.39 92.79H7.79C5.72396 92.79 3.74255 91.9693 2.28164 90.5084C0.82073 89.0475 0 87.0661 0 85L0 34.33C0 32.264 0.82073 30.2826 2.28164 28.8217C3.74255 27.3608 5.72396 26.54 7.79 26.54Z" fill="#00963F"/>
<path fill-rule="evenodd" clip-rule="evenodd" d="M154.38 19.48C157 16 158.26 10 156.22 0C130.48 4 136 17.91 138.46 22.26C142.251 16.3819 146.722 10.9712 151.78 6.14C148.351 11.0938 145.385 16.3527 142.92 21.85C146.39 17.85 150.46 17.64 154.38 19.48ZM162.48 27.64C151.2 40.36 145.15 33.32 142.9 29.5C146.403 28.3347 150.092 27.8262 153.78 28C150.057 26.8504 146.162 26.3597 142.27 26.55C143.64 23.26 149.28 13.55 162.48 27.64Z" fill="#85BC22"/>
<path fill-rule="evenodd" clip-rule="evenodd" d="M78.76 41.08H82.15V44.47H78.76V41.08ZM30.21 62.32L38.63 41.08H44.23L31.29 71.57C29.39 76.04 26.9 78.02 22.29 78.2C19.899 78.2363 17.5231 77.8154 15.29 76.96V72.69C19.66 73.97 20.23 74.1199 21.79 74.09C23.92 74.09 25.72 72.95 27.79 68.17L15.32 41.08H20.73L30.21 62.32ZM66.92 78.2H62.25V68.33C60.1972 68.8708 58.0829 69.143 55.96 69.14C49.41 69.14 45.52 65.76 45.46 59.08V51H50.11V59.27C50.11 63.33 52.11 65.1 55.96 65.1C58.0829 65.103 60.1972 64.8308 62.25 64.29V51H66.92V78.2ZM85.52 78.2C76.8 78.2 72.58 72.48 72.58 64.51C72.58 57.51 77.09 51.02 84.92 51.02C94.68 51.02 96.53 58.15 96.53 65.9H76.88C76.8751 67.0418 77.1014 68.1728 77.5452 69.2248C77.9891 70.2769 78.6413 71.2282 79.4626 72.0215C80.2839 72.8147 81.2573 73.4335 82.3241 73.8406C83.3909 74.2476 84.5291 74.4345 85.67 74.39C87.1054 74.4507 88.5352 74.176 89.8458 73.5875C91.1564 72.999 92.3118 72.1131 93.22 71L96.22 73.13C93.82 76.51 90.2534 78.2 85.52 78.2ZM84.92 54.69C80.37 54.69 77.56 58.26 77.04 62.23H92.23C92.23 58.16 89.48 54.69 84.92 54.69ZM122.85 54.78H113.73V78.2H109.08V54.78H100.08V51H122.8V54.76L122.85 54.78ZM87 41.11H90.39V44.5H87V41.11Z" fill="white"/>
</g>
<defs>
<clipPath id="clip0">
<rect width="401.02" height="92.76" fill="white"/>
</clipPath>
</defs>
</svg>
