<svg width="421" height="98" viewBox="0 0 421 98" fill="none" xmlns="http://www.w3.org/2000/svg">
<path d="M177.53 82.53V86.72H172.71V82.53C167.377 82.1367 163.12 80.69 159.94 78.19C158.39 76.9724 157.15 75.4055 156.321 73.6171C155.492 71.8288 155.098 69.8698 155.17 67.9C155.098 65.9318 155.493 63.9744 156.322 62.1879C157.151 60.4013 158.391 58.8361 159.94 57.62C163.147 55.1133 167.403 53.6667 172.71 53.28V49.09H177.53V53.28C182.903 53.66 187.163 55.1067 190.31 57.62C191.872 58.8281 193.123 60.3905 193.961 62.178C194.799 63.9656 195.2 65.927 195.13 67.9C195.2 69.8745 194.799 71.8373 193.961 73.6264C193.123 75.4156 191.872 76.9798 190.31 78.19C187.157 80.69 182.897 82.1367 177.53 82.53ZM163.33 60.77C162.245 61.6055 161.377 62.689 160.797 63.9297C160.218 65.1703 159.944 66.5318 160 67.9C159.943 69.264 160.217 70.6215 160.796 71.8575C161.376 73.0935 162.245 74.1715 163.33 75C165.517 76.6867 168.643 77.6867 172.71 78V57.78C168.65 58.06 165.523 59.0567 163.33 60.77ZM177.53 57.77V78C181.59 77.71 184.72 76.72 186.91 75C187.988 74.1609 188.85 73.0756 189.422 71.835C189.994 70.5945 190.261 69.2349 190.2 67.87C190.26 66.5053 189.993 65.1459 189.421 63.9055C188.849 62.6651 187.988 61.5797 186.91 60.74C184.723 59.0533 181.597 58.0667 177.53 57.78V57.77Z" fill="#1A1A18"/>
<path d="M214.68 59.26C216.459 59.2379 218.223 59.5896 219.858 60.2924C221.493 60.9952 222.962 62.0335 224.17 63.34C226.689 66.0151 228.091 69.5508 228.091 73.225C228.091 76.8992 226.689 80.4349 224.17 83.11C222.958 84.406 221.486 85.432 219.851 86.1212C218.216 86.8104 216.454 87.1473 214.68 87.11C212.699 87.1962 210.731 86.7569 208.974 85.8366C207.218 84.9163 205.737 83.5478 204.68 81.87V97.05H200.07V60H204.68V64.56C205.728 62.8696 207.206 61.488 208.963 60.5568C210.72 59.6255 212.693 59.1779 214.68 59.26ZM214.1 82.69C215.339 82.7196 216.571 82.4953 217.719 82.0309C218.868 81.5666 219.91 80.872 220.78 79.99C221.658 79.0938 222.349 78.0319 222.812 76.8662C223.276 75.7005 223.503 74.4543 223.48 73.2C223.513 71.9534 223.29 70.7132 222.826 69.5558C222.362 68.3984 221.665 67.3482 220.78 66.47C218.993 64.7081 216.585 63.7204 214.075 63.7204C211.566 63.7204 209.157 64.7081 207.37 66.47C206.485 67.3482 205.788 68.3984 205.324 69.5558C204.86 70.7132 204.637 71.9534 204.67 73.2C204.647 74.4543 204.874 75.7005 205.338 76.8662C205.802 78.0319 206.492 79.0938 207.37 79.99C208.248 80.8754 209.298 81.5716 210.456 82.036C211.613 82.5003 212.853 82.7229 214.1 82.69Z" fill="#1A1A18"/>
<path d="M255.55 64.51V60H260.16V86.5H255.55V81.9C254.498 83.5822 253.017 84.9541 251.26 85.875C249.503 86.7958 247.532 87.2324 245.55 87.14C243.776 87.1773 242.014 86.8404 240.379 86.1512C238.744 85.462 237.272 84.436 236.06 83.14C233.541 80.4649 232.139 76.9292 232.139 73.255C232.139 69.5807 233.541 66.0451 236.06 63.37C237.269 62.0645 238.738 61.0269 240.373 60.3241C242.007 59.6214 243.771 59.2691 245.55 59.29C247.53 59.1934 249.5 59.6261 251.258 60.5435C253.016 61.461 254.497 62.8301 255.55 64.51ZM246.11 82.69C247.357 82.7235 248.597 82.5012 249.755 82.0368C250.912 81.5724 251.962 80.8758 252.84 79.99C253.721 79.0956 254.414 78.0343 254.88 76.8683C255.345 75.7023 255.573 74.4552 255.55 73.2C255.571 71.9525 255.342 70.7134 254.876 69.5561C254.41 68.3989 253.716 67.347 252.835 66.4629C251.955 65.5788 250.906 64.8805 249.751 64.4093C248.596 63.9382 247.358 63.7037 246.11 63.72C244.869 63.6935 243.635 63.9241 242.487 64.3974C241.339 64.8707 240.302 65.5763 239.44 66.47C238.551 67.3463 237.852 68.3959 237.386 69.5536C236.92 70.7113 236.697 71.9524 236.73 73.2C236.706 74.4569 236.933 75.7059 237.398 76.8737C237.864 78.0415 238.558 79.1044 239.44 80C240.309 80.8799 241.349 81.5726 242.497 82.0352C243.644 82.4978 244.873 82.7207 246.11 82.69Z" fill="#1A1A18"/>
<path d="M285.49 71V60H290.1V86.5H285.49V75.38H271.77V86.45H267.15V60H271.77V71H285.49Z" fill="#1A1A18"/>
<path d="M328.79 82.05V60H333.4V86.5H297.1V60H301.71V82.1H313V60H317.61V82.1L328.79 82.05Z" fill="#1A1A18"/>
<path d="M345 78.56L359.69 60H363.4V86.5H358.84V67.85L344.16 86.45H340.45V60H345V78.56Z" fill="#1A1A18"/>
<path d="M384.71 72.89C387.643 74.1233 389.11 76.2233 389.11 79.19C389.128 80.2846 388.892 81.3685 388.422 82.3572C387.952 83.3459 387.26 84.2127 386.4 84.89C384.6 86.39 382.11 87.14 378.93 87.14C373.63 87.14 370.08 85.02 368.28 80.78L372.15 78.5C373.13 81.4 375.407 82.85 378.98 82.85C380.424 82.9315 381.856 82.542 383.06 81.74C383.537 81.4018 383.922 80.9509 384.182 80.4274C384.442 79.9039 384.569 79.3242 384.55 78.74C384.563 78.2436 384.461 77.751 384.253 77.3002C384.045 76.8494 383.736 76.4525 383.35 76.14C382.439 75.4321 381.302 75.077 380.15 75.14H376.28V71H379.14C380.271 71.0634 381.385 70.7073 382.27 70C382.641 69.6624 382.932 69.2471 383.124 68.7839C383.316 68.3207 383.403 67.8208 383.38 67.32C383.399 66.7847 383.289 66.2527 383.059 65.7689C382.83 65.2851 382.487 64.8636 382.06 64.54C381.023 63.8175 379.772 63.4653 378.51 63.54C375.543 63.54 373.527 64.7967 372.46 67.31L368.7 65.13C370.573 61.25 373.843 59.3067 378.51 59.3C380.972 59.184 383.392 59.9658 385.32 61.5C386.134 62.165 386.787 63.0048 387.232 63.9569C387.677 64.909 387.902 65.9491 387.89 67C387.951 68.1789 387.686 69.3518 387.125 70.3906C386.565 71.4294 385.729 72.294 384.71 72.89Z" fill="#1A1A18"/>
<path d="M416 64.51V60H420.61V86.5H416V81.9C414.948 83.5822 413.467 84.9541 411.71 85.875C409.953 86.7958 407.982 87.2325 406 87.14C404.226 87.1761 402.464 86.8386 400.829 86.1495C399.194 85.4603 397.723 84.435 396.51 83.14C393.991 80.4649 392.589 76.9292 392.589 73.255C392.589 69.5808 393.991 66.0451 396.51 63.37C397.716 62.0591 399.184 61.0159 400.819 60.3079C402.453 59.5999 404.219 59.2429 406 59.26C407.983 59.1665 409.955 59.6037 411.713 60.5266C413.471 61.4494 414.951 62.8245 416 64.51ZM406.6 82.69C407.846 82.7217 409.086 82.4986 410.243 82.0343C411.401 81.5701 412.451 80.8744 413.33 79.99C414.202 79.0913 414.888 78.0284 415.346 76.8628C415.804 75.6972 416.027 74.4522 416 73.2C416.023 71.953 415.795 70.7141 415.33 69.5569C414.865 68.3997 414.172 67.3477 413.292 66.4635C412.412 65.5792 411.364 64.8807 410.209 64.4095C409.055 63.9382 407.817 63.7037 406.57 63.72C405.327 63.6921 404.092 63.9221 402.942 64.3954C401.792 64.8687 400.753 65.5751 399.89 66.47C399.003 67.3478 398.305 68.3976 397.839 69.5549C397.373 70.7123 397.149 71.9527 397.18 73.2C397.162 74.4587 397.395 75.7083 397.865 76.8759C398.336 78.0435 399.034 79.1056 399.92 80C400.791 80.8802 401.833 81.5729 402.982 82.0355C404.131 82.4982 405.362 82.7209 406.6 82.69Z" fill="#1A1A18"/>
<path fill-rule="evenodd" clip-rule="evenodd" d="M7.79 26.54H138.18V85C138.18 87.066 137.359 89.0475 135.898 90.5084C134.437 91.9693 132.456 92.79 130.39 92.79H7.79C5.72396 92.79 3.74255 91.9693 2.28164 90.5084C0.82073 89.0475 0 87.066 0 85L0 34.33C0 32.264 0.82073 30.2826 2.28164 28.8216C3.74255 27.3607 5.72396 26.54 7.79 26.54Z" fill="#76B2D0"/>
<path fill-rule="evenodd" clip-rule="evenodd" d="M154.38 19.48C157 16 158.26 10 156.22 0C130.48 4 136 17.91 138.46 22.26C142.251 16.3819 146.722 10.9712 151.78 6.14C148.351 11.0938 145.385 16.3527 142.92 21.85C146.39 17.85 150.46 17.64 154.38 19.48ZM162.48 27.64C151.2 40.36 145.15 33.32 142.9 29.5C146.403 28.3347 150.092 27.8262 153.78 28C150.057 26.8504 146.162 26.3597 142.27 26.55C143.64 23.26 149.28 13.55 162.48 27.64Z" fill="#85BC22"/>
<path fill-rule="evenodd" clip-rule="evenodd" d="M78.76 41.08H82.15V44.47H78.76V41.08ZM30.21 62.32L38.63 41.08H44.23L31.29 71.57C29.39 76.04 26.9 78.02 22.29 78.2C19.899 78.2364 17.5231 77.8155 15.29 76.96V72.69C19.66 73.97 20.23 74.12 21.79 74.09C23.92 74.09 25.72 72.95 27.79 68.17L15.32 41.08H20.73L30.21 62.32ZM66.92 78.2H62.25V68.33C60.1972 68.8708 58.0829 69.1431 55.96 69.14C49.41 69.14 45.52 65.76 45.46 59.08V51H50.11V59.27C50.11 63.33 52.11 65.1 55.96 65.1C58.0829 65.1031 60.1972 64.8308 62.25 64.29V51H66.92V78.2ZM85.52 78.2C76.8 78.2 72.58 72.48 72.58 64.51C72.58 57.51 77.09 51.02 84.92 51.02C94.68 51.02 96.53 58.15 96.53 65.9H76.88C76.8751 67.0418 77.1014 68.1729 77.5452 69.2249C77.9891 70.2769 78.6413 71.2283 79.4626 72.0215C80.2839 72.8148 81.2573 73.4336 82.3241 73.8406C83.3909 74.2477 84.5291 74.4346 85.67 74.39C87.1054 74.4508 88.5352 74.1761 89.8458 73.5876C91.1564 72.9991 92.3118 72.1131 93.22 71L96.22 73.13C93.82 76.51 90.2534 78.2 85.52 78.2ZM84.92 54.69C80.37 54.69 77.56 58.26 77.04 62.23H92.23C92.23 58.16 89.48 54.69 84.92 54.69ZM122.85 54.78H113.73V78.2H109.08V54.78H100.08V51H122.8V54.76L122.85 54.78ZM87 41.11H90.39V44.5H87V41.11Z" fill="white"/>
</svg>
