<svg width="718" height="94" viewBox="0 0 718 94" fill="none" xmlns="http://www.w3.org/2000/svg">
<path fill-rule="evenodd" clip-rule="evenodd" d="M7.79508 26.6201H138.27V85.2569C138.27 87.3292 137.449 89.3166 135.987 90.7819C134.525 92.2472 132.542 93.0704 130.475 93.0704H7.79508C5.72769 93.0704 3.74499 92.2472 2.28312 90.7819C0.821265 89.3166 0 87.3292 0 85.2569L0 34.4337C0 32.3614 0.821265 30.374 2.28312 28.9087C3.74499 27.4433 5.72769 26.6201 7.79508 26.6201V26.6201Z" fill="#4D897C"/>
<path fill-rule="evenodd" clip-rule="evenodd" d="M78.8114 41.2042H82.2036V44.6044H78.8114V41.2042ZM30.2298 62.5084L38.6553 41.2042H44.2589L31.3105 71.7864C29.4092 76.2699 26.9176 78.2559 22.3046 78.4364C19.912 78.4728 17.5345 78.0507 15.3 77.1926V72.9097C19.6729 74.1936 20.2433 74.3441 21.8043 74.314C23.9357 74.314 25.7368 73.1705 27.8082 68.3761L15.3301 41.2042H20.7436L30.2298 62.5084V62.5084ZM66.9637 78.4364H62.2906V68.5366C60.2365 69.079 58.1208 69.3521 55.9965 69.349C49.4423 69.349 45.5497 65.9588 45.4897 59.2586V51.1542H50.1427V59.4492C50.1427 63.5214 52.144 65.2968 55.9965 65.2968C58.1208 65.2999 60.2365 65.0268 62.2906 64.4843V51.1542H66.9637V78.4364ZM85.5758 78.4364C76.8501 78.4364 72.6274 72.6991 72.6274 64.705C72.6274 57.6838 77.1403 51.1742 84.9754 51.1742C94.7418 51.1742 96.593 58.3258 96.593 66.0992H76.9302C76.9253 67.2445 77.1517 68.3789 77.5958 69.4341C78.0399 70.4894 78.6926 71.4436 79.5144 72.2392C80.3362 73.0349 81.3102 73.6556 82.3778 74.0638C83.4453 74.4721 84.5842 74.6596 85.7259 74.6149C87.1622 74.6758 88.5929 74.4003 89.9044 73.81C91.2159 73.2198 92.3719 72.3311 93.2808 71.2146L96.2828 73.3511C93.8812 76.7413 90.3122 78.4364 85.5758 78.4364V78.4364ZM84.9754 54.8553C80.4225 54.8553 77.6106 58.4361 77.0903 62.4181H92.2902C92.2902 58.3358 89.5384 54.8553 84.9754 54.8553V54.8553ZM122.93 54.9456H113.804V78.4364H109.151V54.9456H100.145V51.1542H122.88V54.9255L122.93 54.9456ZM87.0568 41.2343H90.449V44.6345H87.0568V41.2343Z" fill="white"/>
<path fill-rule="evenodd" clip-rule="evenodd" d="M154.48 19.5389C157.102 16.0484 158.363 10.0302 156.322 0C130.565 4.01209 136.088 17.9642 138.55 22.3273C142.344 16.4315 146.817 11.0044 151.879 6.15856C148.448 11.1274 145.48 16.4021 143.013 21.9161C146.485 17.904 150.558 17.6933 154.48 19.5389V19.5389ZM162.586 27.7236C151.298 40.482 145.244 33.4207 142.993 29.5892C146.499 28.4204 150.19 27.9104 153.88 28.0847C150.155 26.9316 146.257 26.4394 142.362 26.6303C143.733 23.3303 149.377 13.591 162.586 27.7236Z" fill="#85BC22"/>
<path d="M177.039 57.7641L194.993 78.0639H188.576L171.579 59.1175V78.0639H166.345V38.5922H171.579V56.4108L188.014 38.5922H194.43L177.039 57.7641Z" fill="black"/>
<path d="M219.918 54.7192V49.8698H224.815V78.0639H219.918V73.2145C217.517 76.9361 213.971 78.7969 209.281 78.7969C205.304 78.7969 201.946 77.3684 199.207 74.5114C196.43 71.6168 195.042 68.102 195.042 63.9668C195.042 59.8693 196.43 56.3732 199.207 53.4786C201.983 50.584 205.341 49.1368 209.281 49.1368C213.971 49.1368 217.517 50.9976 219.918 54.7192ZM209.9 74.0603C212.752 74.0603 215.134 73.1017 217.048 71.1845C218.962 69.1921 219.918 66.7862 219.918 63.9668C219.918 61.1098 218.962 58.7227 217.048 56.8055C215.134 54.8507 212.752 53.8734 209.9 53.8734C207.086 53.8734 204.722 54.8507 202.809 56.8055C200.895 58.7227 199.938 61.1098 199.938 63.9668C199.938 66.7862 200.895 69.1921 202.809 71.1845C204.722 73.1017 207.086 74.0603 209.9 74.0603Z" fill="black"/>
<path d="M256.435 49.8698V73.3837H260.318V85.6199H255.478V78.0639H234.372V85.6199H229.532V73.3837H232.965C234.766 70.9026 235.667 67.4253 235.667 62.9518V49.8698H256.435ZM238.537 73.3837H251.595V54.4372H240.507V62.9518C240.507 67.087 239.85 70.5643 238.537 73.3837Z" fill="black"/>
<path d="M281.13 49.1368C285.07 49.1368 288.428 50.584 291.204 53.4786C293.981 56.3732 295.369 59.8693 295.369 63.9668C295.369 68.102 293.981 71.6168 291.204 74.5114C288.465 77.3684 285.107 78.7969 281.13 78.7969C276.477 78.7969 272.931 76.9361 270.493 73.2145V89.3415H265.596V49.8698H270.493V54.7192C272.931 50.9976 276.477 49.1368 281.13 49.1368ZM280.511 74.0603C283.325 74.0603 285.689 73.1017 287.602 71.1845C289.516 69.1921 290.473 66.7862 290.473 63.9668C290.473 61.1098 289.516 58.7227 287.602 56.8055C285.689 54.8507 283.325 53.8734 280.511 53.8734C277.659 53.8734 275.277 54.8507 273.363 56.8055C271.449 58.7227 270.493 61.1098 270.493 63.9668C270.493 66.7862 271.449 69.1921 273.363 71.1845C275.277 73.1017 277.659 74.0603 280.511 74.0603Z" fill="black"/>
<path d="M324.963 74.5114C322.111 77.3684 318.603 78.7969 314.438 78.7969C310.273 78.7969 306.765 77.3684 303.914 74.5114C301.062 71.6544 299.636 68.1396 299.636 63.9668C299.636 59.7941 301.062 56.2793 303.914 53.4223C306.765 50.5653 310.273 49.1368 314.438 49.1368C318.603 49.1368 322.111 50.5653 324.963 53.4223C327.852 56.3168 329.297 59.8317 329.297 63.9668C329.297 68.102 327.852 71.6168 324.963 74.5114ZM314.438 74.0039C317.252 74.0039 319.616 73.0453 321.53 71.1281C323.443 69.2109 324.4 66.8238 324.4 63.9668C324.4 61.1098 323.443 58.7227 321.53 56.8055C319.616 54.8883 317.252 53.9297 314.438 53.9297C311.662 53.9297 309.317 54.8883 307.403 56.8055C305.489 58.7227 304.533 61.1098 304.533 63.9668C304.533 66.8238 305.489 69.2109 307.403 71.1281C309.317 73.0453 311.662 74.0039 314.438 74.0039Z" fill="black"/>
<path d="M353.811 63.5721C356.7 64.7751 358.145 66.9554 358.145 70.1131C358.145 72.519 357.357 74.455 355.781 75.9211C354.205 77.3496 351.991 78.0639 349.14 78.0639H335.069V49.8698H348.014C350.791 49.8698 352.948 50.5653 354.486 51.9562C356.062 53.3471 356.85 55.2079 356.85 57.5386C356.85 60.2452 355.837 62.2564 353.811 63.5721ZM347.789 54.2681H339.853V61.6549H347.789C350.64 61.6549 352.066 60.3956 352.066 57.8769C352.066 55.471 350.64 54.2681 347.789 54.2681ZM339.853 73.6092H348.858C350.284 73.6092 351.372 73.2709 352.123 72.5942C352.91 71.9176 353.304 70.959 353.304 69.7184C353.304 68.5531 352.91 67.6509 352.123 67.0118C351.372 66.3351 350.284 65.9968 348.858 65.9968H339.853V73.6092Z" fill="black"/>
<path d="M368.326 60.0197H375.305C378.12 60.0197 380.446 60.8655 382.284 62.5571C384.16 64.2112 385.099 66.3727 385.099 69.0418C385.099 71.7108 384.16 73.8912 382.284 75.5828C380.408 77.2369 378.082 78.0639 375.305 78.0639H363.43V49.8698H368.326V60.0197ZM388.757 78.0639V49.8698H393.653V78.0639H388.757ZM368.326 73.4964H375.305C376.731 73.4964 377.913 73.0829 378.851 72.2559C379.789 71.4289 380.258 70.3575 380.258 69.0418C380.258 67.726 379.77 66.6547 378.795 65.8276C377.857 64.963 376.694 64.5307 375.305 64.5307H368.326V73.4964Z" fill="black"/>
<path d="M420.946 45.6407H405.75V41.3552H420.946V45.6407ZM405.975 69.662L421.565 49.8698H425.505V78.0639H420.664V58.2716L405.074 78.0639H401.134V49.8698H405.975V69.662Z" fill="black"/>
<path d="M447.028 49.8698H471.399V78.0639H466.502V54.55H451.925V78.0639H447.028V49.8698Z" fill="black"/>
<path d="M502.603 74.5114C499.751 77.3684 496.243 78.7969 492.078 78.7969C487.913 78.7969 484.405 77.3684 481.554 74.5114C478.702 71.6544 477.276 68.1396 477.276 63.9668C477.276 59.7941 478.702 56.2793 481.554 53.4223C484.405 50.5653 487.913 49.1368 492.078 49.1368C496.243 49.1368 499.751 50.5653 502.603 53.4223C505.492 56.3168 506.937 59.8317 506.937 63.9668C506.937 68.102 505.492 71.6168 502.603 74.5114ZM492.078 74.0039C494.892 74.0039 497.256 73.0453 499.17 71.1281C501.083 69.2109 502.04 66.8238 502.04 63.9668C502.04 61.1098 501.083 58.7227 499.17 56.8055C497.256 54.8883 494.892 53.9297 492.078 53.9297C489.302 53.9297 486.957 54.8883 485.043 56.8055C483.129 58.7227 482.173 61.1098 482.173 63.9668C482.173 66.8238 483.129 69.2109 485.043 71.1281C486.957 73.0453 489.302 74.0039 492.078 74.0039Z" fill="black"/>
<path d="M535.616 49.8698H540.85V78.0639H536.066V57.595L527.117 72.0303H526.498L517.549 57.595V78.0639H512.709V49.8698H517.943L526.78 64.136L535.616 49.8698Z" fill="black"/>
<path d="M572.076 74.5114C569.224 77.3684 565.716 78.7969 561.551 78.7969C557.386 78.7969 553.878 77.3684 551.027 74.5114C548.175 71.6544 546.749 68.1396 546.749 63.9668C546.749 59.7941 548.175 56.2793 551.027 53.4223C553.878 50.5653 557.386 49.1368 561.551 49.1368C565.716 49.1368 569.224 50.5653 572.076 53.4223C574.965 56.3168 576.41 59.8317 576.41 63.9668C576.41 68.102 574.965 71.6168 572.076 74.5114ZM561.551 74.0039C564.365 74.0039 566.729 73.0453 568.643 71.1281C570.556 69.2109 571.513 66.8238 571.513 63.9668C571.513 61.1098 570.556 58.7227 568.643 56.8055C566.729 54.8883 564.365 53.9297 561.551 53.9297C558.775 53.9297 556.43 54.8883 554.516 56.8055C552.602 58.7227 551.646 61.1098 551.646 63.9668C551.646 66.8238 552.602 69.2109 554.516 71.1281C556.43 73.0453 558.775 74.0039 561.551 74.0039Z" fill="black"/>
<path d="M620.454 49.8698V73.3837H624.337V85.6199H619.497V78.0639H582.182V49.8698H587.079V73.3837H598.898V49.8698H603.794V73.3837H615.557V49.8698H620.454Z" fill="black"/>
<path d="M649.089 61.5985V49.8698H653.985V78.0639H649.089V66.2787H634.512V78.0639H629.615V49.8698H634.512V61.5985H649.089Z" fill="black"/>
<path d="M666.279 69.662L681.869 49.8698H685.809V78.0639H680.968V58.2716L665.378 78.0639H661.439V49.8698H666.279V69.662Z" fill="black"/>
<path d="M703.168 63.5157L717.069 78.0639H710.991L698.159 64.6999V78.0639H693.262V49.8698H698.159V62.3316L710.316 49.8698H716.619L703.168 63.5157Z" fill="black"/>
</svg>
