<svg width="265" height="93" viewBox="0 0 265 93" fill="none" xmlns="http://www.w3.org/2000/svg">
<g clip-path="url(#clip0)">
<path fill-rule="evenodd" clip-rule="evenodd" d="M7.79 26.54H138.18V85C138.18 87.066 137.359 89.0474 135.898 90.5083C134.437 91.9692 132.456 92.79 130.39 92.79H7.79C5.72396 92.79 3.74255 91.9692 2.28164 90.5083C0.82073 89.0474 0 87.066 0 85L0 34.33C0 32.2639 0.82073 30.2825 2.28164 28.8216C3.74255 27.3607 5.72396 26.54 7.79 26.54V26.54Z" fill="#E31724"/>
<path fill-rule="evenodd" clip-rule="evenodd" d="M78.76 41.08H82.15V44.47H78.76V41.08ZM30.21 62.32L38.63 41.08H44.23L31.29 71.57C29.39 76.04 26.9 78.02 22.29 78.2C19.899 78.2364 17.5231 77.8155 15.29 76.96V72.69C19.66 73.97 20.23 74.12 21.79 74.09C23.92 74.09 25.72 72.95 27.79 68.17L15.32 41.08H20.73L30.21 62.32V62.32ZM66.92 78.2H62.25V68.33C60.1972 68.8708 58.0829 69.1431 55.96 69.14C49.41 69.14 45.52 65.76 45.46 59.08V51H50.11V59.27C50.11 63.33 52.11 65.1 55.96 65.1C58.0829 65.1031 60.1972 64.8308 62.25 64.29V51H66.92V78.2ZM85.52 78.2C76.8 78.2 72.58 72.48 72.58 64.51C72.58 57.51 77.09 51.02 84.92 51.02C94.68 51.02 96.53 58.15 96.53 65.9H76.88C76.8751 67.0418 77.1014 68.1729 77.5452 69.2249C77.9891 70.2769 78.6413 71.2283 79.4626 72.0215C80.2839 72.8148 81.2573 73.4336 82.3241 73.8406C83.3909 74.2477 84.5291 74.4346 85.67 74.39C87.1054 74.4508 88.5352 74.1761 89.8458 73.5876C91.1564 72.9991 92.3118 72.1131 93.22 71L96.22 73.13C93.82 76.51 90.2534 78.2 85.52 78.2V78.2ZM84.92 54.69C80.37 54.69 77.56 58.26 77.04 62.23H92.23C92.23 58.16 89.48 54.69 84.92 54.69V54.69ZM122.85 54.78H113.73V78.2H109.08V54.78H100.08V51H122.8V54.76L122.85 54.78ZM87 41.11H90.39V44.5H87V41.11Z" fill="white"/>
<path fill-rule="evenodd" clip-rule="evenodd" d="M154.38 19.48C157 16 158.26 10 156.22 0C130.48 4 136 17.91 138.46 22.26C142.251 16.3819 146.722 10.9712 151.78 6.14C148.351 11.0938 145.385 16.3527 142.92 21.85C146.39 17.85 150.46 17.64 154.38 19.48V19.48ZM162.48 27.64C151.2 40.36 145.15 33.32 142.9 29.5C146.403 28.3347 150.092 27.8262 153.78 28C150.057 26.8504 146.162 26.3597 142.27 26.55C143.64 23.26 149.28 13.55 162.48 27.64Z" fill="#85BC22"/>
</g>
<path d="M185.663 42.6983H191.326V80.3017H186.364V50.9174L174.014 71.3843H173.367L161.016 50.9711V80.3017H156V42.6983H161.663L173.69 62.5744L185.663 42.6983Z" fill="black"/>
<path d="M217.143 81C211.391 81 206.662 79.1198 202.959 75.3595C199.256 71.635 197.404 67.0152 197.404 61.5C197.404 55.9848 199.256 51.365 202.959 47.6405C206.662 43.8802 211.391 42 217.143 42C220.559 42 223.723 42.8237 226.636 44.4711C229.548 46.1185 231.813 48.3388 233.431 51.1322L229.063 53.657C227.984 51.5799 226.366 49.9325 224.209 48.7149C222.087 47.4614 219.732 46.8347 217.143 46.8347C212.757 46.8347 209.197 48.2314 206.465 51.0248C203.732 53.7824 202.366 57.2741 202.366 61.5C202.366 65.6901 203.732 69.1639 206.465 71.9215C209.197 74.7149 212.757 76.1116 217.143 76.1116C219.732 76.1116 222.087 75.5028 224.209 74.2851C226.366 73.0317 227.984 71.3843 229.063 69.343L233.431 71.814C231.849 74.6074 229.602 76.8457 226.69 78.5289C223.813 80.1763 220.631 81 217.143 81Z" fill="black"/>
<path d="M244.128 57.4711H253.296C256.532 57.4711 259.301 58.5813 261.602 60.8017C263.867 62.9862 265 65.6722 265 68.8595C265 72.0826 263.867 74.8044 261.602 77.0248C259.409 79.2094 256.64 80.3017 253.296 80.3017H239.112V42.6983H261.764V47.4256H244.128V57.4711ZM244.128 75.6281H253.296C255.166 75.6281 256.748 74.9835 258.043 73.6942C259.373 72.405 260.038 70.7934 260.038 68.8595C260.038 66.9614 259.373 65.3678 258.043 64.0785C256.748 62.7893 255.166 62.1446 253.296 62.1446H244.128V75.6281Z" fill="black"/>
<defs>
<clipPath id="clip0">
<rect width="162.48" height="92.76" fill="white"/>
</clipPath>
</defs>
</svg>
