<svg width="403" height="93" viewBox="0 0 403 93" fill="none" xmlns="http://www.w3.org/2000/svg">
<g clip-path="url(#clip0)">
<path fill-rule="evenodd" clip-rule="evenodd" d="M7.79 26.54H138.18V85C138.18 87.066 137.359 89.0474 135.898 90.5083C134.437 91.9692 132.456 92.79 130.39 92.79H7.79C5.72396 92.79 3.74255 91.9692 2.28164 90.5083C0.82073 89.0474 0 87.066 0 85L0 34.33C0 32.2639 0.82073 30.2825 2.28164 28.8216C3.74255 27.3607 5.72396 26.54 7.79 26.54V26.54Z" fill="#E31724"/>
<path fill-rule="evenodd" clip-rule="evenodd" d="M78.76 41.08H82.15V44.47H78.76V41.08ZM30.21 62.32L38.63 41.08H44.23L31.29 71.57C29.39 76.04 26.9 78.02 22.29 78.2C19.899 78.2364 17.5231 77.8155 15.29 76.96V72.69C19.66 73.97 20.23 74.12 21.79 74.09C23.92 74.09 25.72 72.95 27.79 68.17L15.32 41.08H20.73L30.21 62.32V62.32ZM66.92 78.2H62.25V68.33C60.1972 68.8708 58.0829 69.1431 55.96 69.14C49.41 69.14 45.52 65.76 45.46 59.08V51H50.11V59.27C50.11 63.33 52.11 65.1 55.96 65.1C58.0829 65.1031 60.1972 64.8308 62.25 64.29V51H66.92V78.2ZM85.52 78.2C76.8 78.2 72.58 72.48 72.58 64.51C72.58 57.51 77.09 51.02 84.92 51.02C94.68 51.02 96.53 58.15 96.53 65.9H76.88C76.8751 67.0418 77.1014 68.1729 77.5452 69.2249C77.9891 70.2769 78.6413 71.2283 79.4626 72.0215C80.2839 72.8148 81.2573 73.4336 82.3241 73.8406C83.3909 74.2477 84.5291 74.4346 85.67 74.39C87.1054 74.4508 88.5352 74.1761 89.8458 73.5876C91.1564 72.9991 92.3118 72.1131 93.22 71L96.22 73.13C93.82 76.51 90.2534 78.2 85.52 78.2V78.2ZM84.92 54.69C80.37 54.69 77.56 58.26 77.04 62.23H92.23C92.23 58.16 89.48 54.69 84.92 54.69V54.69ZM122.85 54.78H113.73V78.2H109.08V54.78H100.08V51H122.8V54.76L122.85 54.78ZM87 41.11H90.39V44.5H87V41.11Z" fill="white"/>
<path fill-rule="evenodd" clip-rule="evenodd" d="M154.38 19.48C157 16 158.26 10 156.22 0C130.48 4 136 17.91 138.46 22.26C142.251 16.3819 146.722 10.9712 151.78 6.14C148.351 11.0938 145.385 16.3527 142.92 21.85C146.39 17.85 150.46 17.64 154.38 19.48V19.48ZM162.48 27.64C151.2 40.36 145.15 33.32 142.9 29.5C146.403 28.3347 150.092 27.8262 153.78 28C150.057 26.8504 146.162 26.3597 142.27 26.55C143.64 23.26 149.28 13.55 162.48 27.64Z" fill="#85BC22"/>
</g>
<path d="M156 41H182.916V78.3333H177.988V45.6933H160.928V78.3333H156V41Z" fill="black"/>
<path d="M212.333 56.2533V51.6667H216.942V78.3333H212.333V73.7467C210.072 77.2667 206.734 79.0267 202.319 79.0267C198.575 79.0267 195.413 77.6756 192.835 74.9733C190.221 72.2356 188.914 68.9111 188.914 65C188.914 61.1244 190.221 57.8178 192.835 55.08C195.448 52.3422 198.61 50.9733 202.319 50.9733C206.734 50.9733 210.072 52.7333 212.333 56.2533ZM202.902 74.5467C205.586 74.5467 207.829 73.64 209.631 71.8267C211.432 69.9422 212.333 67.6667 212.333 65C212.333 62.2978 211.432 60.04 209.631 58.2267C207.829 56.3778 205.586 55.4533 202.902 55.4533C200.252 55.4533 198.027 56.3778 196.226 58.2267C194.424 60.04 193.523 62.2978 193.523 65C193.523 67.6667 194.424 69.9422 196.226 71.8267C198.027 73.64 200.252 74.5467 202.902 74.5467Z" fill="black"/>
<path d="M238.55 50.9733C242.259 50.9733 245.42 52.3422 248.034 55.08C250.648 57.8178 251.955 61.1244 251.955 65C251.955 68.9111 250.648 72.2356 248.034 74.9733C245.455 77.6756 242.294 79.0267 238.55 79.0267C234.17 79.0267 230.832 77.2667 228.536 73.7467V89H223.926V51.6667H228.536V56.2533C230.832 52.7333 234.17 50.9733 238.55 50.9733ZM237.967 74.5467C240.616 74.5467 242.842 73.64 244.643 71.8267C246.444 69.9422 247.345 67.6667 247.345 65C247.345 62.2978 246.444 60.04 244.643 58.2267C242.842 56.3778 240.616 55.4533 237.967 55.4533C235.282 55.4533 233.039 56.3778 231.238 58.2267C229.437 60.04 228.536 62.2978 228.536 65C228.536 67.6667 229.437 69.9422 231.238 71.8267C233.039 73.64 235.282 74.5467 237.967 74.5467Z" fill="black"/>
<path d="M253.453 51.6667H276.13V56.1467H267.123V78.3333H262.513V56.1467H253.453V51.6667Z" fill="black"/>
<path d="M298.502 62.76V51.6667H303.112V78.3333H298.502V67.1867H284.78V78.3333H280.17V51.6667H284.78V62.76H298.502Z" fill="black"/>
<path d="M319.136 47.2933C318.606 47.8267 317.953 48.0933 317.176 48.0933C316.398 48.0933 315.727 47.8267 315.162 47.2933C314.632 46.7244 314.367 46.0489 314.367 45.2667C314.367 44.4844 314.632 43.8267 315.162 43.2933C315.727 42.76 316.398 42.4933 317.176 42.4933C317.953 42.4933 318.606 42.76 319.136 43.2933C319.666 43.8267 319.931 44.4844 319.931 45.2667C319.931 46.0489 319.666 46.7244 319.136 47.2933ZM329.203 47.2933C328.673 47.8267 328.02 48.0933 327.242 48.0933C326.465 48.0933 325.794 47.8267 325.229 47.2933C324.699 46.7244 324.434 46.0489 324.434 45.2667C324.434 44.4844 324.699 43.8267 325.229 43.2933C325.794 42.76 326.465 42.4933 327.242 42.4933C328.02 42.4933 328.673 42.76 329.203 43.2933C329.733 43.8267 329.998 44.4844 329.998 45.2667C329.998 46.0489 329.733 46.7244 329.203 47.2933ZM335.561 67.1333H313.361C313.82 69.48 314.897 71.3289 316.593 72.68C318.288 73.9956 320.408 74.6533 322.951 74.6533C326.448 74.6533 328.991 73.3556 330.58 70.76L334.501 73C331.887 77.0178 328.002 79.0267 322.845 79.0267C318.677 79.0267 315.25 77.7111 312.566 75.08C309.952 72.3778 308.645 69.0178 308.645 65C308.645 60.9467 309.934 57.6044 312.513 54.9733C315.091 52.3067 318.429 50.9733 322.527 50.9733C326.412 50.9733 329.574 52.36 332.011 55.1333C334.484 57.8356 335.72 61.1422 335.72 65.0533C335.72 65.7289 335.667 66.4222 335.561 67.1333ZM322.527 55.3467C320.09 55.3467 318.041 56.04 316.381 57.4267C314.756 58.8133 313.749 60.6978 313.361 63.08H331.057C330.669 60.6267 329.697 58.7244 328.143 57.3733C326.589 56.0222 324.717 55.3467 322.527 55.3467Z" fill="black"/>
<path d="M355.642 50.9733C359.351 50.9733 362.513 52.3422 365.126 55.08C367.74 57.8178 369.047 61.1244 369.047 65C369.047 68.9111 367.74 72.2356 365.126 74.9733C362.548 77.6756 359.386 79.0267 355.642 79.0267C351.262 79.0267 347.924 77.2667 345.628 73.7467V89H341.019V51.6667H345.628V56.2533C347.924 52.7333 351.262 50.9733 355.642 50.9733ZM355.059 74.5467C357.709 74.5467 359.934 73.64 361.735 71.8267C363.537 69.9422 364.438 67.6667 364.438 65C364.438 62.2978 363.537 60.04 361.735 58.2267C359.934 56.3778 357.709 55.4533 355.059 55.4533C352.375 55.4533 350.132 56.3778 348.331 58.2267C346.529 60.04 345.628 62.2978 345.628 65C345.628 67.6667 346.529 69.9422 348.331 71.8267C350.132 73.64 352.375 74.5467 355.059 74.5467Z" fill="black"/>
<path d="M379.157 61.2667H385.727C388.376 61.2667 390.566 62.0667 392.297 63.6667C394.063 65.2311 394.946 67.2756 394.946 69.8C394.946 72.3244 394.063 74.3867 392.297 75.9867C390.531 77.5511 388.341 78.3333 385.727 78.3333H374.548V51.6667H379.157V61.2667ZM398.39 78.3333V51.6667H403V78.3333H398.39ZM379.157 74.0133H385.727C387.069 74.0133 388.182 73.6222 389.065 72.84C389.948 72.0578 390.39 71.0444 390.39 69.8C390.39 68.5556 389.931 67.5422 389.012 66.76C388.129 65.9422 387.034 65.5333 385.727 65.5333H379.157V74.0133Z" fill="black"/>
<defs>
<clipPath id="clip0">
<rect width="162.48" height="92.76" fill="white"/>
</clipPath>
</defs>
</svg>
