<svg width="260" height="93" viewBox="0 0 260 93" fill="none" xmlns="http://www.w3.org/2000/svg">
<path fill-rule="evenodd" clip-rule="evenodd" d="M182.78 40.52V78H177.78V45.24H160.55V78H155.55V40.52H182.78ZM222 73C219.288 75.7372 215.822 77.6046 212.044 78.3642C208.266 79.1238 204.348 78.7411 200.788 77.2649C197.229 75.7888 194.189 73.2861 192.058 70.0758C189.926 66.8656 188.799 63.0934 188.82 59.24C188.761 56.6533 189.22 54.081 190.169 51.674C191.119 49.2671 192.539 47.0742 194.348 45.224C196.157 43.3738 198.317 41.9037 200.702 40.9C203.086 39.8964 205.648 39.3793 208.235 39.3793C210.822 39.3793 213.384 39.8964 215.768 40.9C218.153 41.9037 220.313 43.3738 222.122 45.224C223.931 47.0742 225.351 49.2671 226.301 51.674C227.25 54.081 227.709 56.6533 227.65 59.24C227.694 61.7973 227.215 64.3366 226.244 66.7025C225.272 69.0685 223.828 71.2114 222 73ZM197.9 69.6C200.654 72.2929 204.353 73.8008 208.205 73.8008C212.057 73.8008 215.756 72.2929 218.51 69.6C219.869 68.2448 220.938 66.6278 221.653 64.8469C222.368 63.0661 222.714 61.1585 222.67 59.24C222.718 57.312 222.375 55.3942 221.66 53.603C220.944 51.8118 219.873 50.1846 218.51 48.82C215.756 46.127 212.057 44.6192 208.205 44.6192C204.353 44.6192 200.654 46.127 197.9 48.82C196.539 50.1854 195.469 51.8131 194.756 53.6042C194.043 55.3953 193.7 57.3127 193.75 59.24C193.704 61.1579 194.048 63.0652 194.761 64.8461C195.475 66.627 196.543 68.2443 197.9 69.6ZM247.73 55.22C249.261 55.1891 250.782 55.4672 252.203 56.0376C253.624 56.6081 254.915 57.4591 256 58.54C257.065 59.6042 257.909 60.8677 258.485 62.2584C259.062 63.6491 259.358 65.1397 259.358 66.645C259.358 68.1503 259.062 69.6409 258.485 71.0316C257.909 72.4222 257.065 73.6858 256 74.75C254.91 75.8161 253.618 76.6529 252.199 77.2111C250.78 77.7693 249.264 78.0376 247.74 78H233.65V40.52H256.15V45.24H238.64V55.24L247.73 55.22ZM247.73 73.32C249.512 73.32 251.222 72.612 252.482 71.3517C253.742 70.0915 254.45 68.3822 254.45 66.6C254.45 64.8177 253.742 63.1085 252.482 61.8482C251.222 60.588 249.512 59.88 247.73 59.88H238.63V73.35L247.73 73.32Z" fill="#080200"/>
<path fill-rule="evenodd" clip-rule="evenodd" d="M7.79 26.54H138.18V85C138.18 87.066 137.359 89.0474 135.898 90.5083C134.437 91.9692 132.456 92.79 130.39 92.79H7.79C5.72396 92.79 3.74255 91.9692 2.28164 90.5083C0.82073 89.0474 0 87.066 0 85L0 34.33C0 32.2639 0.82073 30.2825 2.28164 28.8216C3.74255 27.3607 5.72396 26.54 7.79 26.54Z" fill="#5BC5F2"/>
<path fill-rule="evenodd" clip-rule="evenodd" d="M154.38 19.48C157 16 158.26 10 156.22 0C130.48 4 136 17.91 138.46 22.26C142.251 16.3819 146.722 10.9712 151.78 6.14C148.351 11.0938 145.385 16.3527 142.92 21.85C146.39 17.85 150.46 17.64 154.38 19.48ZM162.48 27.64C151.2 40.36 145.15 33.32 142.9 29.5C146.403 28.3347 150.092 27.8262 153.78 28C150.057 26.8504 146.162 26.3597 142.27 26.55C143.64 23.26 149.28 13.55 162.48 27.64Z" fill="#85BC22"/>
<path fill-rule="evenodd" clip-rule="evenodd" d="M78.76 41.08H82.15V44.47H78.76V41.08ZM30.21 62.32L38.63 41.08H44.23L31.29 71.57C29.39 76.04 26.9 78.02 22.29 78.2C19.899 78.2364 17.5231 77.8155 15.29 76.96V72.69C19.66 73.97 20.23 74.12 21.79 74.09C23.92 74.09 25.72 72.95 27.79 68.17L15.32 41.08H20.73L30.21 62.32ZM66.92 78.2H62.25V68.33C60.1972 68.8708 58.0829 69.1431 55.96 69.14C49.41 69.14 45.52 65.76 45.46 59.08V51H50.11V59.27C50.11 63.33 52.11 65.1 55.96 65.1C58.0829 65.1031 60.1972 64.8308 62.25 64.29V51H66.92V78.2ZM85.52 78.2C76.8 78.2 72.58 72.48 72.58 64.51C72.58 57.51 77.09 51.02 84.92 51.02C94.68 51.02 96.53 58.15 96.53 65.9H76.88C76.8751 67.0418 77.1014 68.1729 77.5452 69.2249C77.9891 70.2769 78.6413 71.2283 79.4626 72.0215C80.2839 72.8148 81.2573 73.4336 82.3241 73.8406C83.3909 74.2477 84.5291 74.4346 85.67 74.39C87.1054 74.4508 88.5352 74.1761 89.8458 73.5876C91.1564 72.9991 92.3118 72.1131 93.22 71L96.22 73.13C93.82 76.51 90.2534 78.2 85.52 78.2ZM84.92 54.69C80.37 54.69 77.56 58.26 77.04 62.23H92.23C92.23 58.16 89.48 54.69 84.92 54.69ZM122.85 54.78H113.73V78.2H109.08V54.78H100.08V51H122.8V54.76L122.85 54.78ZM87 41.11H90.39V44.5H87V41.11Z" fill="white"/>
</svg>
