<svg width="394" height="93" viewBox="0 0 394 93" fill="none" xmlns="http://www.w3.org/2000/svg">
<g clip-path="url(#clip0)">
<path fill-rule="evenodd" clip-rule="evenodd" d="M7.79 26.54H138.18V85C138.18 87.066 137.359 89.0474 135.898 90.5083C134.437 91.9692 132.456 92.79 130.39 92.79H7.79C5.72396 92.79 3.74255 91.9692 2.28164 90.5083C0.82073 89.0474 0 87.066 0 85L0 34.33C0 32.2639 0.82073 30.2825 2.28164 28.8216C3.74255 27.3607 5.72396 26.54 7.79 26.54V26.54Z" fill="#E31724"/>
<path fill-rule="evenodd" clip-rule="evenodd" d="M78.76 41.08H82.15V44.47H78.76V41.08ZM30.21 62.32L38.63 41.08H44.23L31.29 71.57C29.39 76.04 26.9 78.02 22.29 78.2C19.899 78.2364 17.5231 77.8155 15.29 76.96V72.69C19.66 73.97 20.23 74.12 21.79 74.09C23.92 74.09 25.72 72.95 27.79 68.17L15.32 41.08H20.73L30.21 62.32V62.32ZM66.92 78.2H62.25V68.33C60.1972 68.8708 58.0829 69.1431 55.96 69.14C49.41 69.14 45.52 65.76 45.46 59.08V51H50.11V59.27C50.11 63.33 52.11 65.1 55.96 65.1C58.0829 65.1031 60.1972 64.8308 62.25 64.29V51H66.92V78.2ZM85.52 78.2C76.8 78.2 72.58 72.48 72.58 64.51C72.58 57.51 77.09 51.02 84.92 51.02C94.68 51.02 96.53 58.15 96.53 65.9H76.88C76.8751 67.0418 77.1014 68.1729 77.5452 69.2249C77.9891 70.2769 78.6413 71.2283 79.4626 72.0215C80.2839 72.8148 81.2573 73.4336 82.3241 73.8406C83.3909 74.2477 84.5291 74.4346 85.67 74.39C87.1054 74.4508 88.5352 74.1761 89.8458 73.5876C91.1564 72.9991 92.3118 72.1131 93.22 71L96.22 73.13C93.82 76.51 90.2534 78.2 85.52 78.2V78.2ZM84.92 54.69C80.37 54.69 77.56 58.26 77.04 62.23H92.23C92.23 58.16 89.48 54.69 84.92 54.69V54.69ZM122.85 54.78H113.73V78.2H109.08V54.78H100.08V51H122.8V54.76L122.85 54.78ZM87 41.11H90.39V44.5H87V41.11Z" fill="white"/>
<path fill-rule="evenodd" clip-rule="evenodd" d="M154.38 19.48C157 16 158.26 10 156.22 0C130.48 4 136 17.91 138.46 22.26C142.251 16.3819 146.722 10.9712 151.78 6.14C148.351 11.0938 145.385 16.3527 142.92 21.85C146.39 17.85 150.46 17.64 154.38 19.48V19.48ZM162.48 27.64C151.2 40.36 145.15 33.32 142.9 29.5C146.403 28.3347 150.092 27.8262 153.78 28C150.057 26.8504 146.162 26.3597 142.27 26.55C143.64 23.26 149.28 13.55 162.48 27.64Z" fill="#85BC22"/>
</g>
<path d="M156 41H183.104V77.9305H178.142V45.6427H160.962V77.9305H156V41Z" fill="black"/>
<path d="M213.153 74.6067C210.45 77.2798 207.124 78.6163 203.176 78.6163C199.228 78.6163 195.902 77.2798 193.199 74.6067C190.495 71.9337 189.144 68.6451 189.144 64.741C189.144 60.8369 190.495 57.5484 193.199 54.8753C195.902 52.2022 199.228 50.8657 203.176 50.8657C207.124 50.8657 210.45 52.2022 213.153 54.8753C215.892 57.5835 217.262 60.8721 217.262 64.741C217.262 68.6099 215.892 71.8985 213.153 74.6067ZM203.176 74.1319C205.844 74.1319 208.085 73.235 209.899 71.4412C211.713 69.6475 212.62 67.4141 212.62 64.741C212.62 62.0679 211.713 59.8345 209.899 58.0408C208.085 56.247 205.844 55.3501 203.176 55.3501C200.544 55.3501 198.321 56.247 196.507 58.0408C194.693 59.8345 193.786 62.0679 193.786 64.741C193.786 67.4141 194.693 69.6475 196.507 71.4412C198.321 73.235 200.544 74.1319 203.176 74.1319Z" fill="black"/>
<path d="M244.634 51.5516V73.5516H248.315V85H243.727V77.9305H223.719V85H219.131V73.5516H222.385C224.093 71.2302 224.946 67.9768 224.946 63.7914V51.5516H244.634ZM227.667 73.5516H240.045V55.8249H229.535V63.7914C229.535 67.6603 228.912 70.9137 227.667 73.5516Z" fill="black"/>
<path d="M253.319 51.5516H276.421V77.9305H271.779V55.9305H257.96V77.9305H253.319V51.5516Z" fill="black"/>
<path d="M288.075 70.0695L302.854 51.5516H306.589V77.9305H302.001V59.4125L287.221 77.9305H283.487V51.5516H288.075V70.0695Z" fill="black"/>
<path d="M326.193 78.6163C322.174 78.6163 318.83 77.2974 316.162 74.6595C313.495 71.9864 312.161 68.6803 312.161 64.741C312.161 60.8018 313.495 57.5132 316.162 54.8753C318.83 52.2022 322.174 50.8657 326.193 50.8657C328.825 50.8657 331.19 51.4988 333.289 52.765C335.388 53.996 336.953 55.6667 337.984 57.777L334.089 59.9928C333.414 58.5859 332.364 57.4604 330.942 56.6163C329.554 55.7722 327.971 55.3501 326.193 55.3501C323.525 55.3501 321.284 56.247 319.47 58.0408C317.692 59.8697 316.803 62.1031 316.803 64.741C316.803 67.3437 317.692 69.5596 319.47 71.3885C321.284 73.1823 323.525 74.0791 326.193 74.0791C327.971 74.0791 329.572 73.6747 330.995 72.8657C332.418 72.0216 333.503 70.8961 334.249 69.4892L338.198 71.7578C337.024 73.8681 335.37 75.5388 333.236 76.7698C331.102 78.0008 328.754 78.6163 326.193 78.6163Z" fill="black"/>
<path d="M352.223 64.3189L365.402 77.9305H359.639L347.475 65.4269V77.9305H342.833V51.5516H347.475V63.211L358.999 51.5516H364.975L352.223 64.3189Z" fill="black"/>
<path d="M389.358 56.0887V51.5516H394V77.9305H389.358V73.3933C387.082 76.8753 383.72 78.6163 379.274 78.6163C375.504 78.6163 372.32 77.2798 369.724 74.6067C367.092 71.8985 365.776 68.6099 365.776 64.741C365.776 60.9073 367.092 57.6363 369.724 54.9281C372.356 52.2198 375.539 50.8657 379.274 50.8657C383.72 50.8657 387.082 52.6067 389.358 56.0887ZM379.861 74.1847C382.564 74.1847 384.823 73.2878 386.637 71.494C388.451 69.6299 389.358 67.3789 389.358 64.741C389.358 62.0679 388.451 59.8345 386.637 58.0408C384.823 56.2118 382.564 55.2974 379.861 55.2974C377.193 55.2974 374.953 56.2118 373.138 58.0408C371.324 59.8345 370.417 62.0679 370.417 64.741C370.417 67.3789 371.324 69.6299 373.138 71.494C374.953 73.2878 377.193 74.1847 379.861 74.1847Z" fill="black"/>
<defs>
<clipPath id="clip0">
<rect width="162.48" height="92.76" fill="white"/>
</clipPath>
</defs>
</svg>
