<svg width="675" height="167" viewBox="0 0 675 167" fill="none" xmlns="http://www.w3.org/2000/svg">
<g clip-path="url(#clip0)">
<path fill-rule="evenodd" clip-rule="evenodd" d="M311.883 141.705C307.237 141.835 302.613 141.021 298.291 139.312C293.969 137.603 290.039 135.034 286.739 131.762C283.439 128.49 280.837 124.582 279.093 120.275C277.348 115.968 276.495 111.352 276.587 106.706C276.495 102.061 277.348 97.4445 279.093 93.1376C280.837 88.8308 283.439 84.9229 286.739 81.6507C290.039 78.3785 293.969 75.81 298.291 74.1009C302.613 72.3918 307.237 71.5776 311.883 71.7077C317.848 71.6519 323.721 73.1803 328.901 76.1365C333.943 78.9523 338.126 83.0841 341.003 88.0908L333.151 92.6277C331.203 88.8529 328.2 85.7255 324.507 83.6259C320.675 81.4185 316.323 80.2749 311.901 80.3133C308.379 80.1824 304.868 80.7819 301.589 82.0739C298.31 83.366 295.334 85.3226 292.849 87.8207C290.418 90.2999 288.513 93.2441 287.247 96.4768C285.982 99.7095 285.382 103.164 285.483 106.634C285.374 110.123 285.985 113.597 287.277 116.839C288.568 120.082 290.514 123.024 292.992 125.483C295.47 127.942 298.427 129.865 301.68 131.131C304.934 132.398 308.413 132.982 311.901 132.847C316.323 132.886 320.675 131.742 324.507 129.535C328.172 127.48 331.172 124.419 333.151 120.713L340.948 125.142C338.11 130.173 333.942 134.327 328.901 137.15C323.71 140.135 317.817 141.683 311.829 141.633L311.883 141.705ZM355.949 120.209C356.601 124.179 358.722 127.759 361.892 130.237C365.22 132.697 369.28 133.966 373.417 133.838C379.774 133.838 384.402 131.479 387.302 126.798L394.505 130.849C389.823 138.05 382.751 141.651 373.291 141.651C369.855 141.786 366.427 141.217 363.218 139.979C360.01 138.74 357.089 136.859 354.635 134.45C352.256 132.071 350.391 129.23 349.152 126.103C347.913 122.976 347.327 119.628 347.431 116.266C347.331 112.927 347.903 109.602 349.113 106.487C350.322 103.373 352.145 100.534 354.473 98.1367C356.845 95.7388 359.69 93.8603 362.827 92.6205C365.965 91.3808 369.326 90.8069 372.697 90.9353C375.954 90.8315 379.193 91.4473 382.184 92.7387C385.176 94.0302 387.845 95.9655 390.003 98.4068C394.455 103.333 396.857 109.773 396.72 116.41C396.713 117.67 396.611 118.928 396.414 120.173L355.949 120.209ZM372.643 98.8929C368.611 98.7015 364.655 100.034 361.562 102.626C358.469 105.218 356.465 108.88 355.949 112.882H388.166C387.749 108.849 385.819 105.124 382.763 102.458C379.93 100.084 376.339 98.8067 372.643 98.8569V98.8929ZM432.916 90.9894C436.151 90.9411 439.361 91.5733 442.336 92.845C445.311 94.1166 447.986 95.9992 450.186 98.3708C454.782 103.239 457.342 109.68 457.342 116.374C457.342 123.068 454.782 129.509 450.186 134.378C447.983 136.746 445.308 138.626 442.333 139.897C439.359 141.169 436.151 141.803 432.916 141.759C429.307 141.918 425.719 141.118 422.518 139.442C419.318 137.767 416.617 135.274 414.692 132.217V159.727H406.3V92.2316H414.692V100.531C416.617 97.4746 419.318 94.9818 422.518 93.306C425.719 91.6301 429.307 90.8308 432.916 90.9894ZM431.854 133.604C434.113 133.656 436.358 133.242 438.45 132.387C440.541 131.532 442.434 130.254 444.009 128.635C447.165 125.318 448.925 120.916 448.925 116.338C448.925 111.761 447.165 107.359 444.009 104.042C440.742 100.867 436.365 99.0905 431.809 99.0905C427.252 99.0905 422.875 100.867 419.608 104.042C416.453 107.359 414.693 111.761 414.693 116.338C414.693 120.916 416.453 125.318 419.608 128.635C421.198 130.26 423.106 131.541 425.213 132.396C427.32 133.251 429.58 133.662 431.854 133.604ZM499.474 115.6C501.756 116.408 503.714 117.935 505.052 119.951C506.39 121.968 507.036 124.364 506.894 126.78C506.955 128.602 506.63 130.416 505.941 132.104C505.252 133.792 504.215 135.315 502.896 136.574C499.737 139.307 495.63 140.691 491.461 140.427H467.348V92.2316H489.534C493.584 91.9643 497.584 93.2521 500.717 95.8323C502.028 97.034 503.062 98.5069 503.746 100.148C504.43 101.79 504.749 103.561 504.679 105.338C504.802 107.364 504.385 109.387 503.471 111.199C502.557 113.012 501.177 114.549 499.474 115.654V115.6ZM489.156 99.685H475.542V112.287H489.156C494.03 112.287 496.473 110.133 496.485 105.824C496.485 101.695 494.042 99.637 489.156 99.649V99.685ZM490.957 132.757C492.998 132.869 495.01 132.229 496.611 130.957C497.279 130.332 497.801 129.568 498.141 128.718C498.48 127.869 498.628 126.955 498.574 126.042C498.622 125.164 498.47 124.287 498.13 123.476C497.79 122.665 497.271 121.942 496.611 121.361C494.991 120.136 492.984 119.535 490.957 119.669H475.523V132.685L490.957 132.757ZM551.05 92.2316H557.785V140.427H549.501V106.598L522.705 140.427H515.952V92.2316H524.254V126.024L551.05 92.2316ZM593.189 141.705C589.835 141.784 586.5 141.182 583.386 139.935C580.272 138.688 577.443 136.822 575.071 134.451C572.699 132.079 570.833 129.252 569.586 126.138C568.339 123.025 567.736 119.691 567.815 116.338C567.739 112.987 568.343 109.655 569.591 106.544C570.84 103.433 572.706 100.607 575.078 98.2373C577.45 95.8678 580.278 94.0038 583.391 92.7581C586.503 91.5123 589.837 90.9106 593.189 90.9894C597.697 90.9188 602.137 92.1031 606.011 94.41C609.69 96.5703 612.648 99.7714 614.51 103.61L607.469 107.661C606.235 105.094 604.267 102.952 601.815 101.503C598.55 99.6161 594.757 98.8479 591.015 99.316C587.273 99.784 583.787 101.463 581.087 104.096C577.953 107.384 576.205 111.751 576.205 116.293C576.205 120.835 577.953 125.203 581.087 128.491C582.658 130.098 584.543 131.364 586.625 132.21C588.708 133.056 590.942 133.463 593.189 133.405C596.234 133.448 599.234 132.664 601.869 131.137C604.379 129.704 606.423 127.579 607.757 125.016L614.961 129.175C612.893 132.968 609.822 136.119 606.083 138.284C602.199 140.568 597.766 141.751 593.261 141.705H593.189ZM643.612 109.587C647.974 109.472 652.22 111.009 655.497 113.89C657.006 115.326 658.207 117.053 659.028 118.967C659.848 120.881 660.272 122.942 660.272 125.025C660.272 127.107 659.848 129.168 659.028 131.082C658.207 132.997 657.006 134.724 655.497 136.16C652.201 139.043 647.934 140.568 643.558 140.427H623.208V92.2316H631.6V109.587H643.612ZM666.662 92.2316H675.054V140.427H666.662V92.2316ZM643.612 132.631C645.808 132.7 647.954 131.964 649.644 130.561C650.451 129.887 651.092 129.036 651.517 128.074C651.942 127.113 652.139 126.066 652.094 125.016C652.132 123.961 651.932 122.911 651.508 121.945C651.084 120.979 650.447 120.12 649.644 119.435C647.967 118.002 645.817 117.245 643.612 117.31H631.654V132.631H643.612Z" fill="black"/>
<path fill-rule="evenodd" clip-rule="evenodd" d="M14.0284 47.7812H248.837V153.029C248.837 156.749 247.359 160.316 244.728 162.946C242.097 165.577 238.529 167.054 234.808 167.054H14.0284C10.3078 167.054 6.73964 165.577 4.10881 162.946C1.47798 160.316 0 156.749 0 153.029L0 61.8059C0 58.0864 1.47798 54.5191 4.10881 51.889C6.73964 49.2588 10.3078 47.7812 14.0284 47.7812Z" fill="#E31724"/>
<path fill-rule="evenodd" clip-rule="evenodd" d="M278.01 35.0707C282.728 28.8055 284.997 18.0035 281.324 0C234.971 7.20138 244.911 32.2442 249.341 40.0757C256.168 29.4931 264.219 19.752 273.328 11.0541C267.153 19.9728 261.812 29.4405 257.373 39.3375C263.621 32.1362 270.951 31.7581 278.01 35.0707ZM292.597 49.7615C272.283 72.6619 261.388 59.9875 257.337 53.1102C263.646 51.0123 270.288 50.0968 276.93 50.4097C270.225 48.3399 263.211 47.4565 256.202 47.7992C258.669 41.876 268.826 24.3947 292.597 49.7615Z" fill="#85BC22"/>
<path fill-rule="evenodd" clip-rule="evenodd" d="M141.832 73.9581H147.937V80.0613H141.832V73.9581ZM54.4026 112.197L69.5655 73.9581H79.6501L56.3475 128.851C52.9259 136.898 48.4419 140.463 40.1401 140.787C35.8344 140.852 31.5557 140.095 27.5344 138.554V130.867C35.404 133.171 36.4305 133.441 39.2397 133.387C43.0755 133.387 46.3169 131.335 50.0446 122.729L27.5884 73.9581H37.3309L54.4026 112.197ZM120.511 140.787H112.101V123.018C108.404 123.991 104.597 124.481 100.774 124.476C88.9783 124.476 81.9731 118.391 81.8651 106.364V91.8175H90.2389V106.706C90.2389 114.016 93.8405 117.202 100.774 117.202C104.597 117.208 108.404 116.718 112.101 115.744V91.8175H120.511V140.787ZM154.006 140.787C138.303 140.787 130.703 130.489 130.703 116.14C130.703 103.538 138.825 91.8535 152.925 91.8535C170.501 91.8535 173.833 104.69 173.833 118.643H138.447C138.438 120.698 138.845 122.735 139.645 124.629C140.444 126.523 141.618 128.235 143.097 129.663C144.576 131.092 146.329 132.206 148.25 132.939C150.172 133.671 152.221 134.008 154.276 133.928C156.861 134.037 159.436 133.542 161.796 132.483C164.156 131.423 166.236 129.828 167.872 127.824L173.275 131.659C168.953 137.744 162.53 140.787 154.006 140.787ZM152.925 98.4608C144.732 98.4608 139.671 104.888 138.735 112.035H166.089C166.089 104.708 161.137 98.4608 152.925 98.4608ZM221.23 98.6228H204.807V140.787H196.433V98.6228H180.226V91.8175H221.14V98.5868L221.23 98.6228ZM156.671 74.0121H162.776V80.1153H156.671V74.0121Z" fill="white"/>
</g>
<defs>
<clipPath id="clip0">
<rect width="675" height="167" fill="white"/>
</clipPath>
</defs>
</svg>
